<svg width="1600" height="381" viewBox="0 0 1600 381" fill="none" xmlns="http://www.w3.org/2000/svg">
<path d="M1408 290.7C1393.48 290.7 1381.68 298.774 1381.47 308.788C1365.22 309.708 1352.52 317.536 1352.52 327.055C1352.52 327.868 1352.61 328.669 1352.79 329.454C1348.38 328.151 1343.36 327.415 1338.05 327.415C1321.8 327.415 1308.37 334.291 1306.19 343.223C1296.01 345.501 1289 350.299 1289 355.851C1289 363.604 1302.68 369.889 1319.55 369.889C1324.38 369.889 1328.95 369.375 1333 368.459C1340.65 372.831 1352.67 375.648 1366.19 375.648C1389.28 375.648 1408 367.429 1408 357.291C1408 352.217 1403.31 347.623 1395.73 344.301C1404.59 342.451 1411.62 338.443 1414.88 333.392C1421.68 338.459 1433.52 341.813 1447 341.813C1453.56 341.813 1459.74 341.016 1465.14 339.613C1466.12 348.87 1480.12 356.211 1497.25 356.211C1515.01 356.211 1529.41 348.314 1529.41 338.574C1529.41 328.833 1515.01 320.936 1497.25 320.936C1492.95 320.936 1488.85 321.398 1485.11 322.237C1483.8 312.666 1467.24 305.098 1447 305.098C1442.51 305.098 1438.2 305.47 1434.2 306.153C1432.19 297.395 1421.23 290.7 1408 290.7Z" fill="#FFDDD6"/>
<path d="M1547.91 348.292C1547.91 352.25 1550.37 355.868 1554.46 358.644C1554.38 358.911 1554.34 359.18 1554.34 359.451C1554.34 365.613 1574.86 370.609 1600.17 370.609C1625.48 370.609 1646 365.613 1646 359.451C1646 353.419 1626.34 348.505 1601.78 348.299L1601.78 348.292C1601.78 339.545 1589.72 332.454 1574.84 332.454C1559.96 332.454 1547.91 339.545 1547.91 348.292Z" fill="#FFDDD6"/>
<path d="M1404.78 291.06C1387.74 291.06 1381.47 302.938 1381.47 308.698C1375.44 308.698 1369.81 310.631 1363.78 313.017C1354.85 316.547 1352.42 322.816 1352.69 328.205C1352.94 333.389 1357.31 336.993 1361.77 339.653C1366.99 343.253 1368.2 342.533 1371.01 331.374C1375.84 316.616 1397.15 319.136 1403.58 321.656C1410.01 324.175 1409.61 322.016 1411.62 315.537C1413.63 309.058 1427.3 310.497 1425.29 307.258C1419.5 296.603 1408.4 297.059 1403.58 298.619C1404.92 296.459 1407.04 291.06 1404.78 291.06Z" fill="#FFB0A4"/>
<path fill-rule="evenodd" clip-rule="evenodd" d="M1556.35 336.774C1563.32 333.894 1577.74 329.503 1579.67 334.974C1580.86 338.347 1575.49 338.831 1569.61 339.361C1563.56 339.907 1556.96 340.502 1556.35 344.333C1555.38 350.38 1554.07 353.091 1553.53 353.691L1603.39 356.931C1607 356.211 1614.64 356.427 1616.25 363.05C1617.86 369.673 1601.64 371.569 1593.33 371.689C1579.4 373.609 1546.38 377.304 1525.79 376.728C1505.21 376.152 1455.84 374.568 1433.73 373.849C1431.18 376.248 1423.52 380.976 1413.23 380.688C1406.16 380.49 1402.13 379.532 1398.66 378.708C1395.81 378.033 1393.35 377.448 1389.91 377.448C1386.76 377.448 1382.78 376.467 1379.25 374.174C1374.2 375.563 1368.2 376.368 1361.77 376.368C1343.78 376.368 1329.2 370.083 1329.2 362.33C1329.2 354.577 1343.78 348.292 1361.77 348.292C1365.42 348.292 1368.94 348.552 1372.22 349.031C1377.58 337.865 1394.84 334.486 1404.78 340.013C1405.19 328.855 1425.69 307.978 1453.83 319.496C1467.81 325.336 1462.35 326.879 1458.59 327.943C1457.48 328.256 1456.52 328.527 1456.24 328.855C1455.28 330.007 1454.23 331.495 1453.83 332.094C1455.17 331.974 1458.49 332.166 1461.07 333.894C1461.92 333.78 1462.96 333.602 1464.18 333.394C1474.49 331.638 1497.01 327.802 1515.34 343.253C1527 336.774 1541.47 330.295 1556.35 336.774Z" fill="#FFB0A4"/>
<path d="M280 291C294.524 291 306.323 299.074 306.531 309.088C322.785 310.008 335.48 317.835 335.48 327.355C335.48 328.168 335.387 328.968 335.208 329.753C339.625 328.451 344.638 327.715 349.953 327.715C366.2 327.715 379.633 334.591 381.807 343.523C391.986 345.8 399 350.599 399 356.151C399 363.904 385.32 370.189 368.446 370.189C363.62 370.189 359.054 369.675 354.996 368.759C347.353 373.13 335.332 375.948 321.811 375.948C298.719 375.948 280 367.729 280 357.591C280 352.517 284.689 347.923 292.268 344.6C283.412 342.751 276.378 338.743 273.123 333.692C266.325 338.758 254.479 342.113 241.003 342.113C234.436 342.113 228.255 341.316 222.857 339.913C221.876 349.17 207.877 356.511 190.75 356.511C172.987 356.511 158.588 348.614 158.588 338.873C158.588 329.132 172.987 321.236 190.75 321.236C195.047 321.236 199.147 321.698 202.894 322.536C204.199 312.966 220.762 305.398 241.003 305.398C245.491 305.398 249.797 305.77 253.796 306.453C255.809 297.695 266.774 291 280 291Z" fill="#FFDDD6"/>
<path d="M140.095 348.592C140.095 352.55 137.626 356.168 133.544 358.944C133.622 359.211 133.662 359.479 133.662 359.75C133.662 365.913 113.143 370.909 87.8311 370.909C62.5193 370.909 42 365.913 42 359.75C42 353.719 61.6559 348.805 86.223 348.599L86.223 348.592C86.223 339.845 98.2825 332.754 113.159 332.754C128.035 332.754 140.095 339.845 140.095 348.592Z" fill="#FFDDD6"/>
<path fill-rule="evenodd" clip-rule="evenodd" d="M306.534 308.997C306.534 303.238 300.262 291.36 283.216 291.36C280.965 291.36 283.082 296.759 284.422 298.919C279.598 297.359 268.502 296.903 262.713 307.558C261.827 308.985 263.986 309.504 266.851 310.192C270.486 311.066 275.258 312.213 276.382 315.836C276.633 316.647 276.847 317.39 277.041 318.064C278.398 322.783 278.795 324.16 284.422 321.956C290.855 319.436 312.162 316.916 316.987 331.674C319.801 342.833 321.007 343.553 326.233 339.953C330.69 337.293 335.058 333.689 335.312 328.504C335.576 323.116 333.147 316.847 324.223 313.317C318.193 310.931 312.564 308.997 306.534 308.997ZM108.334 335.274C110.264 329.803 124.684 334.194 131.652 337.074C146.527 330.594 161 337.074 172.659 343.553C190.995 328.101 213.511 331.938 223.817 333.694C225.035 333.901 226.083 334.08 226.932 334.194C229.505 332.466 232.829 332.274 234.169 332.394C233.767 331.794 232.722 330.307 231.757 329.155C231.482 328.827 230.522 328.556 229.414 328.242C225.651 327.179 220.193 325.635 234.169 319.796C262.311 308.278 282.814 329.155 283.216 340.313C293.161 334.786 310.42 338.165 315.777 349.331C319.059 348.852 322.576 348.592 326.233 348.592C344.218 348.592 358.797 354.877 358.797 362.63C358.797 370.383 344.218 376.668 326.233 376.668C319.797 376.668 313.797 375.863 308.745 374.474C305.22 376.766 301.245 377.748 298.091 377.748C294.649 377.748 292.186 378.333 289.342 379.008C285.875 379.832 281.841 380.79 274.774 380.987C264.482 381.275 256.816 376.548 254.27 374.148C232.159 374.868 182.79 376.452 162.206 377.028C141.622 377.604 108.602 373.908 94.6655 371.989C86.357 371.869 70.1419 369.973 71.75 363.35C73.3581 356.727 80.9966 356.511 84.6148 357.231L134.466 353.991C133.93 353.391 132.617 350.68 131.652 344.633C131.041 340.802 124.441 340.207 118.393 339.661C112.507 339.131 107.145 338.647 108.334 335.274Z" fill="#FFB0A4"/>
<path d="M854.314 153.34C867.922 154.358 877.939 155.885 881.247 156.521C981.653 151.643 1186.01 140.742 1200.18 136.161C1217.9 130.435 1212.94 124.073 1215.78 118.347C1218.04 113.766 1213.89 112.621 1211.52 112.621C1211.05 112.621 1205.84 112.907 1199.46 112.907C1200.88 87.4569 1175.14 80.3842 1160.49 79.5359C1158.84 72.9614 1150.29 59.8124 1129.31 59.8124C1108.33 59.8124 1101.2 73.3856 1100.25 80.1721C1096.47 79.3238 1086.5 77.6272 1076.86 77.6272C1064.81 77.6272 1059.14 80.1721 1047.09 84.6258C1047.8 64.2661 1027.25 55.3587 1015.2 54.0862C1003.15 52.8137 994.646 57.9037 989.685 62.3574C984.724 66.8111 976.219 63.6299 956.374 64.9023C936.529 66.1748 928.024 77.6272 926.607 82.7171C925.189 87.8071 910.305 89.7158 904.635 92.2608C898.965 94.8057 893.295 98.6232 884.082 108.803C874.868 118.983 881.247 125.345 881.247 127.254C881.247 129.163 881.247 129.799 863.528 129.799C843.116 130.308 838.013 138.07 838.013 141.888C837.777 145.281 840.706 152.322 854.314 153.34Z" fill="#FFDDD6"/>
<path d="M918.101 111.984C918.101 104.858 940.309 106.894 951.413 108.803C962.28 109.227 986.992 112.621 998.899 122.8C1013.78 110.712 1038.59 109.439 1059.14 110.076C1079.7 110.712 1057.73 104.349 1061.27 101.168C1075.44 90.9883 1084.66 90.3521 1105.21 90.9883C1125.77 91.6246 1130.73 118.347 1134.98 119.619C1139.23 120.892 1149.15 109.439 1161.91 119.619C1174.67 129.799 1186.01 127.254 1198.77 124.709C1211.52 122.164 1210.81 119.619 1208.69 115.802C1206.99 112.748 1210.34 112.408 1212.23 112.621C1222.15 113.681 1242 121.019 1242 141.888C1242 167.974 1211.52 167.974 1204.44 169.882C1197.35 171.791 1125.06 167.974 1106.63 169.882C1088.2 171.791 993.229 173.7 955.665 173.7C918.101 173.7 915.975 166.701 906.761 160.339C897.548 153.976 873.45 160.339 872.033 150.159C872.6 135.398 909.596 133.829 928.024 134.889C931.331 135.525 937.805 134.889 937.238 127.254C936.529 117.711 918.101 120.892 918.101 111.984Z" fill="#FFB0A4"/>
<path d="M1001.03 69.3558C1015.77 67.3198 1017.09 58.7518 1015.91 54.7222C1015.91 53.8739 1017.04 52.4318 1021.58 53.4497C1045.39 58.0307 1048.51 79.5357 1047.09 89.7156C1045.68 91.4122 1042.13 94.2965 1039.3 92.2605C1029.38 83.9894 1019.45 84.6256 1011.66 84.6256C1007.4 78.2632 982.598 71.9008 1001.03 69.3558Z" fill="#FFB0A4"/>
<path d="M1132.14 66.811C1136.68 61.7211 1142.54 61.7211 1144.9 62.3573C1154.54 64.3933 1159.79 75.5063 1161.2 80.8083C1166.16 80.1721 1178.78 80.8083 1189.55 88.4432C1203.02 97.9869 1199.46 103.999 1199.46 112.907C1186.7 112.27 1178.21 119.619 1173.96 120.255C1173.96 111.348 1171.83 106.894 1161.2 100.532C1150.57 94.1694 1143.48 96.7144 1134.27 100.532C1127.18 82.717 1108.76 85.262 1110.17 78.8996C1113.01 66.811 1123.64 69.3559 1132.14 66.811Z" fill="#FFB0A4"/>
<g filter="url(#filter0_dd_626_327)">
<path fill-rule="evenodd" clip-rule="evenodd" d="M185.787 72.3884C188.51 66.6715 190 60.4739 190 54C190 25.2812 160.675 2 124.5 2C88.6398 2 59.5104 24.8782 59.0066 53.2523C25.8802 55.8404 0 78.0208 0 105C0 133.719 29.3253 157 65.5 157C77.706 157 89.1322 154.349 98.9152 149.734C110.854 159.751 127.758 166 146.5 166C182.675 166 212 142.719 212 114C212 96.9828 201.704 81.8748 185.787 72.3884Z" fill="#FFDDD6"/>
<path d="M69.5 102C33.1 102 21.6667 129.333 20.5 143C46.1 164.2 83.1667 157.167 98.5 151C102.333 155.5 116.4 164.8 142 166C170 167.312 190 154.833 198 148.5C199.833 147 202.4 142.1 198 134.5C192.5 125 156.5 136.5 139.5 136.5C125.9 136.5 109.167 122.167 102.5 115C98.7791 111 87.5 102 69.5 102Z" fill="#FFB0A4"/>
</g>
<g clip-path="url(#clip0_626_327)">
<path fill-rule="evenodd" clip-rule="evenodd" d="M400.876 191.082C391.797 194.862 381.463 197 370.5 197C334.325 197 305 173.719 305 145C305 116.281 334.325 93 370.5 93C395.371 93 417.005 104.005 428.096 120.216C431.232 118.797 434.764 118 438.5 118C451.479 118 462 127.626 462 139.5C462 145.656 459.172 151.207 454.641 155.126C459.847 160.309 463 167.085 463 174.5C463 190.792 447.778 204 429 204C417.308 204 406.995 198.88 400.876 191.082Z" fill="#FFDDD6"/>
<path d="M354 145C369.2 143.4 373.667 151 374 155C390.5 154 400 157 406.5 178C413 199 431.5 196 436.5 196C439.424 195.708 442.5 196.5 443 198.5C443.467 200.367 442.783 202.092 440.5 202.5C426.5 205 413.5 204.5 401 191C376.2 200.6 352 196.667 343 193.5C339.27 192.527 329.542 188.05 319.806 177.858C319.284 177.311 318.995 176.571 319.016 175.816C319.595 155.187 335.353 146.963 354 145Z" fill="#FFB0A4"/>
</g>
<g clip-path="url(#clip1_626_327)">
<path fill-rule="evenodd" clip-rule="evenodd" d="M649.124 182.082C658.203 185.862 668.537 188 679.5 188C715.675 188 745 164.719 745 136C745 107.281 715.675 84 679.5 84C654.629 84 632.995 95.0052 621.904 111.216C618.768 109.797 615.236 109 611.5 109C598.521 109 588 118.626 588 130.5C588 136.656 590.828 142.207 595.359 146.126C590.153 151.309 587 158.085 587 165.5C587 181.792 602.222 195 621 195C632.692 195 643.005 189.88 649.124 182.082Z" fill="#FFDDD6"/>
<path fill-rule="evenodd" clip-rule="evenodd" d="M689 136C704.5 136 731 139.2 731 168C727.03 172.963 710.251 190.242 681.642 188.052C663.795 187.558 657.724 185.241 652.305 183.174C651.241 182.768 650.202 182.371 649.104 182C648.685 182.416 648.263 182.846 647.831 183.285C643.13 188.072 637.357 193.951 623 194.5C610.461 194.98 609.66 191.5 610 189.5C610.34 187.5 612.2 186.949 615.619 186.949C633.288 187.908 641.979 177.758 644.117 172.564C643.404 170.566 643.404 164.412 649.104 155.78C655.875 145.526 667.151 145.559 676.816 145.587C677.32 145.589 677.819 145.59 678.313 145.59C678.313 137.918 685.438 136 689 136Z" fill="#FFB0A4"/>
</g>
<path d="M1415.42 149.539C1410.25 146.647 1404.3 145 1397.97 145C1378.1 145 1362 161.205 1362 181.194C1362 191.405 1366.2 200.629 1372.96 207.209C1368.76 210.752 1366.32 214.997 1366.32 219.56C1366.32 231.953 1384.35 242 1406.6 242C1428.85 242 1446.88 231.953 1446.88 219.56C1446.88 217.004 1446.11 214.548 1444.7 212.259C1447.23 211.296 1449.62 210.043 1451.83 208.54C1457.22 213.981 1464.93 217.388 1473.5 217.388C1475.96 217.388 1478.35 217.106 1480.64 216.575C1484.67 218.933 1489.36 220.284 1494.36 220.284C1497.64 220.284 1500.78 219.703 1503.69 218.637C1507.11 222.322 1511.97 224.627 1517.38 224.627C1518.26 224.627 1519.13 224.565 1519.99 224.445C1523.25 229.755 1529.23 233.313 1536.08 233.313C1546.41 233.313 1554.78 225.211 1554.78 215.216C1554.78 205.222 1546.41 197.119 1536.08 197.119C1535.39 197.119 1534.7 197.156 1534.03 197.227C1531.48 192.233 1526.78 188.535 1521.17 187.371C1518.67 174.768 1507.62 165.269 1494.36 165.269C1492.21 165.269 1490.12 165.517 1488.12 165.988C1483.81 163.688 1478.82 162.373 1473.5 162.373C1469.92 162.373 1466.49 162.968 1463.31 164.058C1457.62 152.75 1445.95 145 1432.49 145C1426.28 145 1420.46 146.65 1415.42 149.539Z" fill="#FFDDD6"/>
<path d="M1398.79 191.075C1426.99 176.598 1445.07 187.939 1450.58 195.419C1452.98 193.006 1460.22 187.601 1470 185.284C1482.23 182.389 1490.87 191.075 1490.87 197.59C1490.87 204.105 1487.99 212.068 1496.62 212.068C1505.25 212.068 1499.5 212.068 1498.78 207.001C1498.06 201.933 1502.37 195.419 1509.57 197.59C1516.76 199.762 1518.92 214.239 1518.92 220.031C1518.92 225.822 1533.31 227.269 1543.38 222.926C1544.1 211.699 1559.92 214.239 1553.45 227.269C1546.97 240.299 1538.34 230.165 1518.92 233.784C1499.5 237.404 1478.64 237.404 1439.07 237.404C1399.51 237.404 1398.79 230.165 1398.79 224.374C1398.79 221.65 1397.13 218.625 1395.28 216.154L1395.27 216.137C1393.1 213.255 1390.84 210.235 1390.78 206.626C1390.69 201.565 1392.34 195.134 1398.79 191.075Z" fill="#FFB0A4"/>
<path fill-rule="evenodd" clip-rule="evenodd" d="M938.876 357.082C936.258 358.172 933.536 359.125 930.724 359.93C929.054 360.443 927.146 360.934 924.825 361.372C919.606 362.435 914.136 363 908.5 363C908.429 363 908.357 363 908.286 363C908.207 363 908.128 362.999 908.049 362.999C907.497 363.018 906.934 363.036 906.358 363.052C901.206 363.447 896.438 363.209 892.058 362.527C886.21 364.264 876.627 365.404 860.927 365.404C821.363 365.404 800.502 365.404 781.08 361.784C773.374 360.348 767.367 361.077 762.519 361.666H762.519C755.148 362.56 750.458 363.129 746.552 355.269C744.711 351.564 744.673 348.706 745.579 346.773C745.342 345.623 745.218 344.434 745.218 343.216C745.218 333.222 753.592 325.119 763.921 325.119C764.614 325.119 765.299 325.156 765.972 325.227C768.518 320.233 773.217 316.535 778.835 315.371C781.33 302.768 792.384 293.269 805.642 293.269C807.788 293.269 809.875 293.517 811.878 293.988C816.189 291.688 821.181 290.373 826.503 290.373C830.083 290.373 833.514 290.968 836.689 292.058C841.807 281.896 851.744 274.607 863.474 273.234C875.212 264.411 891.06 259 908.5 259C933.371 259 955.005 270.005 966.096 286.216C969.232 284.797 972.764 284 976.5 284C989.479 284 1000 293.626 1000 305.5C1000 311.656 997.172 317.207 992.641 321.126C997.847 326.309 1001 333.085 1001 340.5C1001 356.792 985.778 370 967 370C955.308 370 944.995 364.88 938.876 357.082Z" fill="#FFDDD6"/>
<path d="M781 347C780.6 355.8 764.833 353.333 757 351C756 347.5 752.8 341.2 748 344C743.2 346.8 745.667 353.833 747.5 357C748.167 359.167 751.5 363.2 759.5 362C769.9 360.4 778.167 361.333 781 362C785 363 797.4 365 815 365C876 367.5 886 364 892 362.5C913.2 366.1 932.167 360.333 939 357C940 358.5 943.2 362.2 948 365C957.5 371 968.5 371 973.5 369.5C977.5 368.3 978.167 366 978 365C977.833 364 976.8 362 974 362C955.6 362.8 946.333 352.667 944 347.5C944.5 347 945 344.6 943 339C934.5 315.5 916.5 320.5 910 320.5C909 313 907 310 890 311.5C862 314.5 857 330.5 857 343.5C851.8 339.5 847.5 330.5 846 326.5C844.833 321.5 838.7 311.8 823.5 313C808.3 314.2 807.833 328.833 809.5 336C809.5 337.166 808.4 339.6 804 340C798 340.8 797.833 340 798.5 339.5C799 339.166 800.2 338 801 336C802.5 332 800.5 325.5 793 325C785.5 324.5 781.5 336 781 347Z" fill="#FFB0A4"/>
<defs>
<filter id="filter0_dd_626_327" x="-4" y="0" width="220" height="174.096" filterUnits="userSpaceOnUse" color-interpolation-filters="sRGB">
<feFlood flood-opacity="0" result="BackgroundImageFix"/>
<feColorMatrix in="SourceAlpha" type="matrix" values="0 0 0 0 0 0 0 0 0 0 0 0 0 0 0 0 0 0 127 0" result="hardAlpha"/>
<feOffset dy="1"/>
<feGaussianBlur stdDeviation="1.5"/>
<feComposite in2="hardAlpha" operator="out"/>
<feColorMatrix type="matrix" values="0 0 0 0 0 0 0 0 0 0 0 0 0 0 0 0 0 0 0.15 0"/>
<feBlend mode="normal" in2="BackgroundImageFix" result="effect1_dropShadow_626_327"/>
<feColorMatrix in="SourceAlpha" type="matrix" values="0 0 0 0 0 0 0 0 0 0 0 0 0 0 0 0 0 0 127 0" result="hardAlpha"/>
<feOffset dy="4"/>
<feGaussianBlur stdDeviation="2"/>
<feComposite in2="hardAlpha" operator="out"/>
<feColorMatrix type="matrix" values="0 0 0 0 0 0 0 0 0 0 0 0 0 0 0 0 0 0 0.25 0"/>
<feBlend mode="normal" in2="effect1_dropShadow_626_327" result="effect2_dropShadow_626_327"/>
<feBlend mode="normal" in="SourceGraphic" in2="effect2_dropShadow_626_327" result="shape"/>
</filter>
<clipPath id="clip0_626_327">
<rect width="158" height="111" fill="white" transform="translate(305 93)"/>
</clipPath>
<clipPath id="clip1_626_327">
<rect width="158" height="111" fill="white" transform="matrix(-1 0 0 1 745 84)"/>
</clipPath>
</defs>
</svg>
