<svg width="181" height="192" viewBox="0 0 181 192" fill="none" xmlns="http://www.w3.org/2000/svg">
<rect x="95" y="133" width="14" height="44" fill="#2E3A40"/>
<rect x="79" y="192" width="15" height="58" rx="7.5" transform="rotate(-90 79 192)" fill="#2E3A40"/>
<rect x="55" y="133" width="14" height="44" fill="#2E3A40"/>
<rect x="37" y="192" width="15" height="58" rx="7.5" transform="rotate(-90 37 192)" fill="#2E3A40"/>
<path d="M39.0635 0H134.188C145.608 0 154.867 9.15781 154.867 20.4545V163.636C154.867 172.674 147.46 180 138.324 180H72.1502C63.0135 180 55.6068 172.674 55.6068 163.636V50.4465C45.2009 36.2812 39.0635 18.8496 39.0635 0Z" fill="#181F21"/>
<path d="M84.5577 167.727C84.5577 131.578 104.072 102.273 140.618 102.273C148.89 102.273 154.867 114.332 154.867 116.591V163.636C154.867 172.674 147.46 180 138.324 180H84.5577V167.727Z" fill="#6E7E89"/>
<path d="M14.2485 85.9091H68.0143C79.4351 85.9091 88.6935 95.0669 88.6935 106.364V151.364H55.6068C32.7653 151.364 14.2485 133.048 14.2485 110.455V85.9091Z" fill="#6E7E89"/>
<path d="M0 100.664L62.603 99.5214C74.0218 99.3131 83.4494 108.3 83.6601 119.595L84.5588 167.789L42.6315 168.554C19.7938 168.971 0.938664 150.996 0.517384 128.407L0 100.664Z" fill="#6E7E89"/>
<path d="M5.97683 90H80.4219C91.8427 90 101.101 99.1578 101.101 110.455V180H47.3352C24.4936 180 5.97683 161.684 5.97683 139.091V90Z" fill="#2E3A40"/>
<path d="M100.334 50.1112C100.334 70.058 91.4172 86.2281 80.4176 86.2281C69.418 86.2281 60.5011 70.058 60.5011 50.1112C60.5011 30.1644 69.418 13.9943 80.4176 13.9943C91.4172 13.9943 100.334 30.1644 100.334 50.1112Z" fill="white"/>
<path d="M93.6952 50.1111C93.6952 66.4312 87.7506 79.6613 80.4176 79.6613C73.0845 79.6613 67.1399 66.4312 67.1399 50.1111C67.1399 33.791 73.0845 20.5609 80.4176 20.5609C87.7506 20.5609 93.6952 33.791 93.6952 50.1111Z" fill="#181F21"/>
<g style="mix-blend-mode:color-burn">
<path d="M155 165.002C155 195.502 69.0001 180.002 53.5001 180.002C23.9529 180.002 6.50008 163.173 6.50008 145.5C6.50008 127.827 -8.99998 89 15.0001 86.0021C15.0001 158 116.5 193.5 155 165.002Z" fill="#D9D9D9"/>
</g>
<path d="M108.005 41C108.005 21 126.672 14.6667 136.005 14H150.005C175.205 14 181.172 34.6667 181.005 45V66.5H108.005V41Z" fill="#D9D9D9"/>
<path d="M128.003 87C111.605 87 108.005 74.5 108.005 65H168C168 83.5 154.668 87 148.002 87H128.003Z" fill="#6E7E89"/>
</svg>
