<svg width="1620" height="844" viewBox="0 0 1620 844" fill="none" xmlns="http://www.w3.org/2000/svg">
<g filter="url(#filter0_f_628_297)">
<path d="M172.987 542.038C173.293 541.12 174.153 540.5 175.122 540.5H225.878C226.847 540.5 227.707 541.12 228.013 542.038V542.038C228.498 543.495 227.414 545 225.878 545H175.122C173.586 545 172.502 543.495 172.987 542.038V542.038Z" fill="#963F3F"/>
<path d="M494.402 541.272C494.707 541.094 495.055 541 495.408 541H741.592C741.945 541 742.293 541.094 742.598 541.272V541.272C744.363 542.299 743.634 545 741.592 545H495.408C493.366 545 492.637 542.299 494.402 541.272V541.272Z" fill="#963F3F"/>
<path d="M934.292 541.279C934.601 541.096 934.952 541 935.31 541H1177.69C1178.05 541 1178.4 541.096 1178.71 541.279V541.279C1180.46 542.315 1179.72 545 1177.69 545H935.31C933.275 545 932.541 542.315 934.292 541.279V541.279Z" fill="#963F3F"/>
<path d="M1441.04 542.287C1441.33 541.512 1442.07 541 1442.9 541H1495.1C1495.93 541 1496.67 541.512 1496.96 542.287V542.287C1497.46 543.596 1496.5 545 1495.1 545H1442.9C1441.5 545 1440.54 543.596 1441.04 542.287V542.287Z" fill="#963F3F"/>
</g>
<path fill-rule="evenodd" clip-rule="evenodd" d="M1025.44 143.231V0.461426H1043.49V143.231L1105.03 377.077L1096.18 520.201C1096.07 521.943 1097.11 523.554 1098.74 524.181L1126.72 534.943C1127.49 535.24 1128 535.982 1128 536.809V542H936V536.809C936 535.982 936.51 535.24 937.282 534.943L965.342 524.15C966.933 523.538 967.961 521.986 967.904 520.282L963.077 377.077L1025.44 143.231ZM993.136 368.912L1032.65 185.299C1033.09 183.228 1036.03 183.181 1036.54 185.237L1082.25 368.85C1082.57 370.112 1081.61 371.333 1080.31 371.333H995.092C993.818 371.333 992.868 370.158 993.136 368.912ZM995.872 403.333H1080.32C1082.12 403.333 1083.51 404.898 1083.3 406.68L1069.96 521.232C1069.83 522.389 1069.04 523.363 1067.93 523.732L1038.65 533.493C1038.06 533.689 1037.42 533.698 1036.83 533.519L1004.42 523.719C1003.24 523.362 1002.4 522.321 1002.29 521.093L992.882 406.579C992.738 404.831 994.118 403.333 995.872 403.333Z" fill="#E47F70"/>
<path fill-rule="evenodd" clip-rule="evenodd" d="M637.436 143.231V0.461426H655.487V143.231L717.026 377.077L708.181 520.201C708.073 521.943 709.108 523.554 710.737 524.181L738.718 534.943C739.49 535.24 740 535.982 740 536.809V542H548V536.809C548 535.982 548.51 535.24 549.282 534.943L577.342 524.15C578.933 523.538 579.961 521.986 579.904 520.282L575.077 377.077L637.436 143.231ZM605.136 368.912L644.648 185.299C645.094 183.228 648.032 183.181 648.544 185.237L694.254 368.85C694.568 370.112 693.613 371.333 692.313 371.333H607.092C605.818 371.333 604.868 370.158 605.136 368.912ZM607.872 403.333H692.323C694.117 403.333 695.51 404.898 695.303 406.68L681.964 521.233C681.83 522.389 681.038 523.363 679.933 523.732L650.648 533.493C650.06 533.689 649.425 533.698 648.831 533.519L616.416 523.719C615.237 523.362 614.395 522.321 614.294 521.093L604.882 406.579C604.738 404.831 606.118 403.333 607.872 403.333Z" fill="#E47F70"/>
<path d="M226.5 490.5L250.5 468.5L249.5 463.5H207.5V542H226.5V490.5Z" fill="#E47F70"/>
<path d="M548 490.5L572 468.5L571 463.5H529V542H548V490.5Z" fill="#E47F70"/>
<path d="M1176 490.5L1200 468.5L1199 463.5H1157V542H1176V490.5Z" fill="#E47F70"/>
<path d="M1495 490.5L1519 468.5L1518 463.5H1476V542H1495V490.5Z" fill="#E47F70"/>
<path d="M174.5 490.5L159.5 468H222.5L207.5 483V542H174.5V490.5Z" fill="#F89F91"/>
<path d="M496 490.5L481 468H544L529 483V542H496V490.5Z" fill="#F89F91"/>
<path d="M1124 490.5L1109 468H1172L1157 483V542H1124V490.5Z" fill="#F89F91"/>
<path d="M1443 490.5L1428 468H1491L1476 483V542H1443V490.5Z" fill="#F89F91"/>
<rect x="10" y="442" width="1600" height="27" fill="#F89F91"/>
<path d="M1038 542V533.637L1004.17 523.355C1003.45 523.137 1002.92 522.536 1002.78 521.799L1002 517.5L993 406V369.5L1033 183.5V0H1025V143.5L962.5 377L967.476 521.796C967.49 522.218 967.238 522.604 966.845 522.76L936 535V542H1038Z" fill="#FFB9AD"/>
<path d="M650 542V533.637L616.168 523.355C615.451 523.137 614.916 522.536 614.782 521.799L614 517.5L605 406V369.5L645 183.5V0H637V143.5L574.5 377L579.476 521.796C579.49 522.218 579.238 522.604 578.845 522.76L548 535V542H650Z" fill="#F5B8AE"/>
<g filter="url(#filter1_f_628_297)">
<path fill-rule="evenodd" clip-rule="evenodd" d="M1025.41 756.23V828.991H1043.46V756.23L1104.99 637.052L1096.41 566.309C1096.16 564.228 1097.56 562.305 1099.62 561.902L1126.35 556.662C1127.29 556.478 1127.97 555.655 1127.97 554.699V553H935.972V554.699C935.972 555.655 936.649 556.478 937.587 556.662L964.517 561.94C966.492 562.327 967.872 564.122 967.739 566.13L963.048 637.052L1025.41 756.23ZM993.759 642.756L1032.72 735.035C1033.39 736.616 1035.61 736.677 1036.36 735.134L1081.43 642.856C1082.08 641.528 1081.12 639.979 1079.64 639.979H995.601C994.17 639.979 993.202 641.438 993.759 642.756ZM996.108 623.67H1079.9C1081.82 623.67 1083.25 621.88 1082.82 620.002L1070.16 564.571C1069.89 563.389 1068.93 562.485 1067.74 562.282L1038.19 557.263C1037.87 557.209 1037.55 557.206 1037.23 557.255L1004.59 562.285C1003.3 562.483 1002.29 563.488 1002.08 564.772L993.147 620.193C992.852 622.016 994.261 623.67 996.108 623.67Z" fill="url(#paint0_linear_628_297)" fill-opacity="0.6"/>
</g>
<g filter="url(#filter2_f_628_297)">
<path fill-rule="evenodd" clip-rule="evenodd" d="M636.417 754.23V826.992H654.468V754.23L716.004 635.052L707.427 564.309C707.174 562.229 708.571 560.306 710.628 559.903L737.363 554.662C738.301 554.478 738.978 553.656 738.978 552.699V551H546.984V552.699C546.984 553.656 547.661 554.478 548.599 554.662L575.529 559.941C577.504 560.328 578.883 562.122 578.751 564.13L574.06 635.052L636.417 754.23ZM604.77 640.757L643.732 733.035C644.4 734.616 646.619 734.677 647.372 733.135L692.446 640.857C693.094 639.528 692.127 637.979 690.648 637.979H606.613C605.182 637.979 604.214 639.438 604.77 640.757ZM607.12 621.671H690.909C692.836 621.671 694.263 619.881 693.834 618.003L681.17 562.572C680.9 561.389 679.944 560.486 678.748 560.283L649.203 555.264C648.886 555.21 648.562 555.207 648.244 555.256L615.601 560.286C614.315 560.484 613.303 561.489 613.096 562.773L604.158 618.193C603.864 620.017 605.273 621.671 607.12 621.671Z" fill="url(#paint1_linear_628_297)" fill-opacity="0.6"/>
</g>
<g filter="url(#filter3_f_628_297)">
<path d="M226.517 560.074L250.506 573.293L249.503 576.292L207.504 576.258L207.542 529.159L226.542 529.175L226.517 560.074Z" fill="url(#paint2_linear_628_297)" fill-opacity="0.53" style="mix-blend-mode:darken"/>
<path d="M548.007 560.334L571.996 573.553L570.993 576.552L528.995 576.518L529.033 529.419L548.032 529.435L548.007 560.334Z" fill="url(#paint3_linear_628_297)" fill-opacity="0.53" style="mix-blend-mode:darken"/>
<path d="M1175.99 560.839L1199.98 574.058L1198.97 577.057L1156.98 577.023L1157.01 529.924L1176.01 529.94L1175.99 560.839Z" fill="url(#paint4_linear_628_297)" fill-opacity="0.53" style="mix-blend-mode:darken"/>
<path d="M1494.98 561.096L1518.97 574.315L1517.96 577.314L1475.97 577.28L1476 530.182L1495 530.197L1494.98 561.096Z" fill="url(#paint5_linear_628_297)" fill-opacity="0.53" style="mix-blend-mode:darken"/>
<rect width="1599.95" height="16.1995" transform="matrix(1 0.000805587 0.000805587 -1 10 588.999)" fill="url(#paint6_linear_628_297)" fill-opacity="0.53" style="mix-blend-mode:darken"/>
<path d="M174.519 560.033L159.508 573.521L222.506 573.571L207.514 564.559L207.543 529.161L174.544 529.134L174.519 560.033Z" fill="url(#paint7_linear_628_297)" fill-opacity="0.53" style="mix-blend-mode:darken"/>
<path d="M496.009 560.292L480.999 573.779L543.997 573.83L529.004 564.818L529.033 529.419L496.034 529.393L496.009 560.292Z" fill="url(#paint8_linear_628_297)" fill-opacity="0.53" style="mix-blend-mode:darken"/>
<path d="M1123.99 560.798L1108.98 574.285L1171.98 574.336L1156.99 565.324L1157.01 529.925L1124.01 529.899L1123.99 560.798Z" fill="url(#paint9_linear_628_297)" fill-opacity="0.53" style="mix-blend-mode:darken"/>
<path d="M1442.98 561.054L1427.97 574.542L1490.97 574.593L1475.98 565.581L1476 530.182L1443.01 530.155L1442.98 561.054Z" fill="url(#paint10_linear_628_297)" fill-opacity="0.53" style="mix-blend-mode:darken"/>
</g>
<rect x="769" y="385" width="3" height="57" fill="#963F3F"/>
<path d="M769 385C769 383.343 770.343 382 772 382H790C791.105 382 792 382.895 792 384V385H769V385Z" fill="#963F3F"/>
<path d="M774 385H792V388C792 389.105 791.105 390 790 390H776C774.895 390 774 389.105 774 388V385Z" fill="white"/>
<rect x="114" y="385" width="3" height="57" fill="#963F3F"/>
<path d="M114 385C114 383.343 115.343 382 117 382H135C136.105 382 137 382.895 137 384V385H114V385Z" fill="#963F3F"/>
<path d="M119 385H137V388C137 389.105 136.105 390 135 390H121C119.895 390 119 389.105 119 388V385Z" fill="white"/>
<rect x="1244" y="385" width="3" height="57" fill="#963F3F"/>
<path d="M1244 385C1244 383.343 1245.34 382 1247 382H1265C1266.1 382 1267 382.895 1267 384V385H1244V385Z" fill="#963F3F"/>
<path d="M1249 385H1267V388C1267 389.105 1266.1 390 1265 390H1251C1249.9 390 1249 389.105 1249 388V385Z" fill="white"/>
<rect x="1496" y="385" width="3" height="57" fill="#963F3F"/>
<path d="M1496 385C1496 383.343 1497.34 382 1499 382H1517C1518.1 382 1519 382.895 1519 384V385H1496V385Z" fill="#963F3F"/>
<path d="M1501 385H1519V388C1519 389.105 1518.1 390 1517 390H1503C1501.9 390 1501 389.105 1501 388V385Z" fill="white"/>
<rect x="462" y="385" width="3" height="57" fill="#963F3F"/>
<path d="M462 385C462 383.343 463.343 382 465 382H483C484.105 382 485 382.895 485 384V385H462V385Z" fill="#963F3F"/>
<path d="M467 385H485V388C485 389.105 484.105 390 483 390H469C467.895 390 467 389.105 467 388V385Z" fill="white"/>
<defs>
<filter id="filter0_f_628_297" x="168.87" y="536.5" width="1332.23" height="12.5" filterUnits="userSpaceOnUse" color-interpolation-filters="sRGB">
<feFlood flood-opacity="0" result="BackgroundImageFix"/>
<feBlend mode="normal" in="SourceGraphic" in2="BackgroundImageFix" result="shape"/>
<feGaussianBlur stdDeviation="2" result="effect1_foregroundBlur_628_297"/>
</filter>
<filter id="filter1_f_628_297" x="920.972" y="538" width="221.994" height="305.992" filterUnits="userSpaceOnUse" color-interpolation-filters="sRGB">
<feFlood flood-opacity="0" result="BackgroundImageFix"/>
<feBlend mode="normal" in="SourceGraphic" in2="BackgroundImageFix" result="shape"/>
<feGaussianBlur stdDeviation="7.5" result="effect1_foregroundBlur_628_297"/>
</filter>
<filter id="filter2_f_628_297" x="531.984" y="536" width="221.994" height="305.992" filterUnits="userSpaceOnUse" color-interpolation-filters="sRGB">
<feFlood flood-opacity="0" result="BackgroundImageFix"/>
<feBlend mode="normal" in="SourceGraphic" in2="BackgroundImageFix" result="shape"/>
<feGaussianBlur stdDeviation="7.5" result="effect1_foregroundBlur_628_297"/>
</filter>
<filter id="filter3_f_628_297" x="0" y="519.134" width="1619.96" height="81.1543" filterUnits="userSpaceOnUse" color-interpolation-filters="sRGB">
<feFlood flood-opacity="0" result="BackgroundImageFix"/>
<feBlend mode="normal" in="SourceGraphic" in2="BackgroundImageFix" result="shape"/>
<feGaussianBlur stdDeviation="5" result="effect1_foregroundBlur_628_297"/>
</filter>
<linearGradient id="paint0_linear_628_297" x1="1031.97" y1="532.231" x2="1035.38" y2="830.844" gradientUnits="userSpaceOnUse">
<stop offset="0.0625" stop-color="#F49685"/>
<stop offset="0.588542" stop-color="#FDF3F1"/>
</linearGradient>
<linearGradient id="paint1_linear_628_297" x1="642.981" y1="530.231" x2="646.389" y2="828.845" gradientUnits="userSpaceOnUse">
<stop stop-color="#F49685"/>
<stop offset="0.697917" stop-color="#FDF3F1"/>
</linearGradient>
<linearGradient id="paint2_linear_628_297" x1="229.004" y1="576.275" x2="229.042" y2="529.177" gradientUnits="userSpaceOnUse">
<stop offset="0.588542" stop-color="#F49685"/>
<stop offset="0.9375" stop-color="#FDF3F1"/>
</linearGradient>
<linearGradient id="paint3_linear_628_297" x1="550.494" y1="576.535" x2="550.532" y2="529.437" gradientUnits="userSpaceOnUse">
<stop offset="0.588542" stop-color="#F49685"/>
<stop offset="0.9375" stop-color="#FDF3F1"/>
</linearGradient>
<linearGradient id="paint4_linear_628_297" x1="1178.47" y1="577.04" x2="1178.51" y2="529.942" gradientUnits="userSpaceOnUse">
<stop offset="0.588542" stop-color="#F49685"/>
<stop offset="0.9375" stop-color="#FDF3F1"/>
</linearGradient>
<linearGradient id="paint5_linear_628_297" x1="1497.47" y1="577.298" x2="1497.5" y2="530.199" gradientUnits="userSpaceOnUse">
<stop offset="0.588542" stop-color="#F49685"/>
<stop offset="0.9375" stop-color="#FDF3F1"/>
</linearGradient>
<linearGradient id="paint6_linear_628_297" x1="799.976" y1="0" x2="799.976" y2="16.1995" gradientUnits="userSpaceOnUse">
<stop offset="0.588542" stop-color="#F49685"/>
<stop offset="0.9375" stop-color="#FDF3F1"/>
</linearGradient>
<linearGradient id="paint7_linear_628_297" x1="191.007" y1="573.546" x2="191.043" y2="529.147" gradientUnits="userSpaceOnUse">
<stop offset="0.588542" stop-color="#F49685"/>
<stop offset="0.9375" stop-color="#FDF3F1"/>
</linearGradient>
<linearGradient id="paint8_linear_628_297" x1="512.498" y1="573.805" x2="512.533" y2="529.406" gradientUnits="userSpaceOnUse">
<stop offset="0.588542" stop-color="#F49685"/>
<stop offset="0.9375" stop-color="#FDF3F1"/>
</linearGradient>
<linearGradient id="paint9_linear_628_297" x1="1140.48" y1="574.311" x2="1140.51" y2="529.912" gradientUnits="userSpaceOnUse">
<stop offset="0.588542" stop-color="#F49685"/>
<stop offset="0.9375" stop-color="#FDF3F1"/>
</linearGradient>
<linearGradient id="paint10_linear_628_297" x1="1459.47" y1="574.567" x2="1459.5" y2="530.169" gradientUnits="userSpaceOnUse">
<stop offset="0.588542" stop-color="#F49685"/>
<stop offset="0.9375" stop-color="#FDF3F1"/>
</linearGradient>
</defs>
</svg>
