<svg width="44" height="44" viewBox="0 0 44 44" fill="none" xmlns="http://www.w3.org/2000/svg">
<g clip-path="url(#clip0_145_2)">
<path d="M12.8477 6.77326H37.4416V39.2039C37.4416 42.12 35.0777 44.4839 32.1616 44.4839H14.6077C13.6357 44.4839 12.8477 43.696 12.8477 42.7239V6.77326Z" fill="black"/>
<path d="M21.0457 39.1321C21.0457 32.1271 26.7243 26.4484 33.7293 26.4484C35.7796 26.4484 37.4416 28.1105 37.4416 30.1607L37.4416 39.2039C37.4416 42.12 35.0777 44.4839 32.1616 44.4839L21.0457 44.484V39.1321Z" fill="#6E7E89"/>
<path d="M3.01017 21.5296L14.8857 21.5296C18.2878 21.5296 21.0457 24.2876 21.0457 27.6896V37.9256H7.41017C4.98012 37.9256 3.01017 35.9556 3.01017 33.5256V21.5296Z" fill="#6E7E89"/>
<path d="M0 25.4989L17.4722 25.1766C18.687 25.1542 19.69 26.1208 19.7124 27.3356L19.9742 41.5292L10.8606 41.6973C5.02947 41.8048 0.215201 37.165 0.107635 31.3338L0 25.4989Z" fill="#6E7E89"/>
<path d="M1.37055 23.1692H19.4849C22.1579 23.1692 24.3249 25.3362 24.3249 28.0092V44.4839H12.3705C6.29541 44.4839 1.37055 39.5591 1.37055 33.4839V23.1692Z" fill="#2E3A40"/>
<path d="M8.79999 0H29.92C34.0511 0 37.4 3.34891 37.4 7.48V26.4H35.2C20.6197 26.4 8.79999 14.5803 8.79999 0Z" fill="black"/>
<path d="M25.9644 16.6109V10.5341C25.9644 6.64603 29.1164 3.49412 33.0044 3.49412H35.802C40.3296 3.49412 44 7.16447 44 11.6921V16.6109L25.9644 16.6109Z" fill="#D9D9D9"/>
<path d="M30.8044 21.5296C28.1314 21.5296 25.9644 19.3627 25.9644 16.6896V16.28H40.7208C40.7208 19.1793 38.3704 21.5296 35.4711 21.5296H30.8044Z" fill="#6E7E89"/>
<path d="M24.3249 12.5119C24.3249 17.4923 22.1227 21.5297 19.4061 21.5297C16.6895 21.5297 14.4873 17.4923 14.4873 12.5119C14.4873 7.53152 16.6895 3.49412 19.4061 3.49412C22.1227 3.49412 24.3249 7.53152 24.3249 12.5119Z" fill="white"/>
<path d="M22.6853 12.5119C22.6853 16.5867 21.2171 19.89 19.4061 19.89C17.595 19.89 16.1269 16.5867 16.1269 12.5119C16.1269 8.43701 17.595 5.13369 19.4061 5.13369C21.2171 5.13369 22.6853 8.43701 22.6853 12.5119Z" fill="black"/>
</g>
<defs>
<clipPath id="clip0_145_2">
<rect width="44" height="44" fill="white"/>
</clipPath>
</defs>
</svg>
