<svg width="46" height="48" viewBox="0 0 46 48" fill="none" xmlns="http://www.w3.org/2000/svg">
<g clip-path="url(#clip0_237_17)">
<path d="M14 11H38V42.8195C38 45.6806 35.6932 48 32.8475 48H15.7175C14.769 48 14 47.2268 14 46.2731V11Z" fill="black"/>
<path d="M22 42.749C22 35.876 27.5415 30.3044 34.3773 30.3044C36.3781 30.3044 38 31.9351 38 33.9467L38 42.8195C38 45.6806 35.6932 48 32.8475 48L22 48V42.749Z" fill="#6E7E89"/>
<path d="M3.01017 25.5296L14.8857 25.5296C18.2878 25.5296 21.0457 28.2876 21.0457 31.6896V41.9256H7.41017C4.98012 41.9256 3.01017 39.9556 3.01017 37.5256V25.5296Z" fill="#6E7E89"/>
<path d="M0 29.4989L17.4722 29.1766C18.687 29.1542 19.69 30.1208 19.7124 31.3356L19.9742 45.5292L10.8606 45.6973C5.02947 45.8048 0.215201 41.165 0.107635 35.3338L0 29.4989Z" fill="#6E7E89"/>
<path d="M1.37055 27.1692H19.4849C22.1579 27.1692 24.3249 29.3362 24.3249 32.0092V48.4839H12.3705C6.29541 48.4839 1.37055 43.5591 1.37055 37.4839V27.1692Z" fill="#2E3A40"/>
<path d="M13.4262 1L34.2473 4.54097C38.3199 5.23358 41.0599 9.09657 40.3673 13.1692L37.1952 31.8214L35.0263 31.4525C20.6524 29.008 10.9817 15.3739 13.4262 1Z" fill="black"/>
<path d="M27.5627 20.2535L28.5816 14.2628C29.2334 10.4297 32.8692 7.85089 36.7022 8.50277L39.4602 8.9718C43.9237 9.7309 46.9268 13.9647 46.1677 18.4282L45.343 23.2774L27.5627 20.2535Z" fill="#D9D9D9"/>
<path d="M31.5095 25.9142C28.8743 25.466 27.1014 22.9664 27.5495 20.3312L27.6182 19.9273L42.1657 22.4014C41.6796 25.2596 38.9684 27.1827 36.1102 26.6966L31.5095 25.9142Z" fill="#6E7E89"/>
<path d="M28.3648 16.5896C28.3648 19.1244 25.8207 21.1792 22.6824 21.1792C19.5441 21.1792 17 19.1244 17 16.5896C17 14.0548 19.5441 12 22.6824 12C25.8207 12 28.3648 14.0548 28.3648 16.5896Z" fill="white"/>
<path d="M26.4706 18.4255C26.4706 18.9324 24.7746 19.3434 22.6824 19.3434C20.5902 19.3434 18.8941 18.9324 18.8941 18.4255C18.8941 17.9185 20.5902 17.5075 22.6824 17.5075C24.7746 17.5075 26.4706 17.9185 26.4706 18.4255Z" fill="black"/>
</g>
<defs>
<clipPath id="clip0_237_17">
<rect width="46" height="48" fill="white"/>
</clipPath>
</defs>
</svg>
