<svg width="100" height="100" viewBox="0 0 100 100" fill="none" xmlns="http://www.w3.org/2000/svg">
<g clip-path="url(#clip0_18_4)">
<path d="M29.1993 15.3938H85.0946V89.0998C85.0946 95.7273 79.722 101.1 73.0946 101.1H33.1993C30.9902 101.1 29.1993 99.309 29.1993 97.0999V15.3938Z" fill="black"/>
<path d="M20 0H68C77.3888 0 85 7.61116 85 17V60H80C46.8629 60 20 33.1371 20 0Z" fill="black"/>
<path fill-rule="evenodd" clip-rule="evenodd" d="M81.3682 37.752V37.752H59.0101V23.9412C59.0101 15.1046 66.1736 7.94119 75.0101 7.94119H81.3682L81.3682 7.94118C91.6583 7.94118 100 16.2829 100 26.5729V37.752H81.3682Z" fill="#D9D9D9"/>
<path fill-rule="evenodd" clip-rule="evenodd" d="M73.9155 48.931H70.0101C63.935 48.931 59.0101 44.0061 59.0101 37.931V37H73.9155V37H77.6419L77.6419 37H92.5473C92.5473 43.5893 87.2056 48.931 80.6163 48.931H77.6419L77.6419 48.931H73.9155V48.931Z" fill="#6E7E89"/>
<path d="M47.8311 88.9365C47.8311 73.0161 60.7371 60.11 76.6575 60.11C81.3172 60.11 85.0946 63.8874 85.0946 68.5471V89.0999C85.0946 95.7273 79.722 101.1 73.0946 101.1H47.8311V88.9365Z" fill="#6E7E89"/>
<path d="M6.84131 48.931L33.8312 48.931C41.5632 48.931 47.8312 55.199 47.8312 62.931L47.8312 86.1945L16.8413 86.1945C11.3185 86.1945 6.84131 81.7174 6.84131 76.1945L6.84131 48.931Z" fill="#6E7E89"/>
<path d="M0 57.952L39.7095 57.2195C42.4704 57.1686 44.7499 59.3655 44.8008 62.1265L45.3959 94.3845L24.6832 94.7666C11.4306 95.011 0.489092 84.4659 0.244626 71.2133L0 57.952Z" fill="#6E7E89"/>
<path d="M3.11487 52.6573L44.2838 52.6573C50.3589 52.6573 55.2838 57.5822 55.2838 63.6573L55.2838 101.1L28.1149 101.1C14.3077 101.1 3.11487 89.907 3.11487 76.0999L3.11487 52.6573Z" fill="#2E3A40"/>
<ellipse cx="44.1048" cy="28.4361" rx="11.1791" ry="20.4949" fill="white"/>
<ellipse cx="44.1047" cy="28.4361" rx="7.4527" ry="16.7686" fill="black"/>
</g>
<defs>
<clipPath id="clip0_18_4">
<rect width="100" height="100" fill="white"/>
</clipPath>
</defs>
</svg>
