<svg width="182" height="194" viewBox="0 0 182 194" fill="none" xmlns="http://www.w3.org/2000/svg">
<path d="M56.62 52C42.22 32.8 39.62 10 40.12 1H135.12C143.62 1 151.62 5.5 155.12 16C175.92 16 181.12 36.6667 181.12 47V68H168.12C168.12 79.6 160.12 84.5 156.12 85.5V163.5C156.12 179.5 143.12 181.833 136.62 181C137.12 181.167 138.12 182.2 138.12 185C138.12 191.4 133.12 193 130.62 193H45.1201C41.5201 193 39.2868 190 38.6201 188.5C38.1201 187 37.7201 183.3 40.1201 180.5C16.6201 174.5 12.12 160.5 8.62005 151.5C1.42005 145.1 0.620046 115.5 1.12005 101.5H7.12005V91H15.3295V87H56.62V52Z" stroke="black"/>
</svg>
