<svg width="103" height="67" viewBox="0 0 103 67" fill="none" xmlns="http://www.w3.org/2000/svg">
<path d="M59.8546 28.1705C52.0835 20.3993 50.7883 6.15218 51.1121 0H83.1682C97.9334 0 102.272 11.6568 102.596 17.4851V35.9417C95.602 62.3636 71.5114 65.0835 50.1407 65.0835H40.4267C36.5411 65.0835 32.3318 63.1408 30.7128 62.1694H29.7414L10.3134 61.198C9.66585 61.198 8.37066 60.8094 8.37066 59.2552C8.37066 57.7009 9.66585 57.3124 10.3134 57.3124C9.34205 56.9886 7.20498 56.341 6.42786 56.341C1.76516 56.341 0.599487 54.3982 0.599487 53.4268C0.599487 51.0954 6.42786 49.5412 9.34205 48.5698C11.2848 47.9222 18.2789 45.4613 30.7128 40.7986C40.4267 29.1419 54.0263 27.1991 59.8546 28.1705Z" fill="black"/>
<path d="M51.0386 65.2262C50.5269 65.1449 50.1492 64.6894 50.2476 64.1807C51.6197 57.0909 65.2936 51.0906 77.2371 47.4193C84.1701 45.2881 91.4894 44.9749 98.7106 45.6556C96.7814 49.514 94.2882 53.0879 91.3286 56.2264C86.932 60.8885 81.8056 65.0743 67.8927 66.2372C62.2679 66.7074 56.6131 66.1117 51.0386 65.2262Z" fill="#6E7E89"/>
</svg>
