<svg width="25" height="18" viewBox="0 0 25 18" fill="none" xmlns="http://www.w3.org/2000/svg">
<g clip-path="url(#clip0_103_184)">
<g filter="url(#filter0_d_103_184)">
<path fill-rule="evenodd" clip-rule="evenodd" d="M14.5 11H13.2667H12.4667H5.31579C4.03681 11 3 9.96319 3 8.68421C3 7.75405 3.75405 7 4.68421 7H6V6C6 4.34315 7.34315 3 9 3H9.59971C10.5101 1.21916 12.3627 0 14.5 0C17.5376 0 20 2.46243 20 5.5C20 6.02001 19.9278 6.52317 19.793 7H20.3158C21.246 7 22 7.75405 22 8.68421C22 9.96319 20.9632 11 19.6842 11H14.5Z" fill="#FFFDFC"/>
</g>
</g>
<defs>
<filter id="filter0_d_103_184" x="-1" y="0" width="27" height="19" filterUnits="userSpaceOnUse" color-interpolation-filters="sRGB">
<feFlood flood-opacity="0" result="BackgroundImageFix"/>
<feColorMatrix in="SourceAlpha" type="matrix" values="0 0 0 0 0 0 0 0 0 0 0 0 0 0 0 0 0 0 127 0" result="hardAlpha"/>
<feOffset dy="4"/>
<feGaussianBlur stdDeviation="2"/>
<feComposite in2="hardAlpha" operator="out"/>
<feColorMatrix type="matrix" values="0 0 0 0 0 0 0 0 0 0 0 0 0 0 0 0 0 0 0.25 0"/>
<feBlend mode="normal" in2="BackgroundImageFix" result="effect1_dropShadow_103_184"/>
<feBlend mode="normal" in="SourceGraphic" in2="effect1_dropShadow_103_184" result="shape"/>
</filter>
<clipPath id="clip0_103_184">
<rect width="25" height="18" fill="white"/>
</clipPath>
</defs>
</svg>
