<svg width="47" height="29" viewBox="0 0 47 29" fill="none" xmlns="http://www.w3.org/2000/svg">
<path d="M15.8207 14.7785C15.8207 22.5145 12.4 28.7857 8.18038 28.7857C3.96073 28.7857 0.540039 22.5145 0.540039 14.7785C0.540039 7.04245 3.96073 0.771179 8.18038 0.771179C12.4 0.771179 15.8207 7.04245 15.8207 14.7785Z" fill="white"/>
<path d="M13.2737 14.7783C13.2737 21.1078 10.9933 26.2388 8.18019 26.2388C5.3671 26.2388 3.08663 21.1078 3.08663 14.7783C3.08663 8.44888 5.3671 3.31783 8.18019 3.31783C10.9933 3.31783 13.2737 8.44888 13.2737 14.7783Z" fill="black"/>
<path d="M46.1956 12.4279V21.1705H18.0251V12.4279C18.0251 3.10253 28.7105 0.771179 31.6247 0.771179H35.5103C42.5043 0.771179 46.1956 8.54235 46.1956 12.4279Z" fill="#D9D9D9"/>
<path d="M33.5675 27.9703C39.7844 27.9703 41.3387 22.7895 41.3387 20.1991H18.0251C18.0251 26.416 21.9107 27.9703 23.8535 27.9703H33.5675Z" fill="#6E7E89"/>
</svg>
