<svg width="70" height="43" viewBox="0 0 70 43" fill="none" xmlns="http://www.w3.org/2000/svg">
<g filter="url(#filter0_d_223_236)">
<path d="M23.4857 27.8635C23.4857 20.1927 30.05 14.1649 37.693 14.8173L63.2627 17C61.0505 26.8923 52.2708 33.9254 42.1341 33.9254H29.5476C26.1997 33.9254 23.4857 31.2114 23.4857 27.8635Z" fill="black"/>
<path d="M35.9709 0H52.467C57.9082 0 62.3191 4.41091 62.3191 9.85204V19.2868C62.3191 20.732 61.097 21.8759 59.655 21.7804L52.9741 21.3381C42.1287 20.6201 34.2494 10.7319 35.9709 0Z" fill="black"/>
<path d="M36.6088 34C36.2532 34 35.9651 33.702 36.0504 33.3568C36.9692 29.6398 44.2592 26.1264 50.429 24.0909C53.6384 23.0321 57.0844 23.1698 60.3487 24.0449C59.6285 25.3414 58.7184 26.5229 57.7354 27.6334C54.8961 30.841 52.3303 34.011 40.7627 34L36.6088 34Z" fill="#6E7E89"/>
<path d="M15.3141 32.1986C14.2832 32.1501 13.9925 30.7615 14.9173 30.3036L29.6669 23L34.6723 33.1084L15.3141 32.1986Z" fill="black"/>
<path d="M10.5171 28.9299C9.57024 28.6927 9.48932 27.3785 10.3999 27.0269L26.0121 21L28.7627 33.5L10.5171 28.9299Z" fill="black"/>
<path d="M4.39237 13.5541C3.59795 12.8132 4.08645 11.4816 5.1715 11.4302L33.3324 10.096C38.7374 9.83994 43.4715 13.6869 44.3267 19.03C44.5384 20.3528 43.7993 21.6442 42.5516 22.1318L40.6162 22.888C39.2711 23.4137 37.8736 23.7938 36.4476 24.0221L33.3542 24.5172C24.0874 26.0003 14.6547 23.1246 7.7914 16.724L4.39237 13.5541Z" fill="#6E7E89"/>
</g>
<path d="M63.3041 14.4871L63.3041 4C66.924 4 69.8585 6.93452 69.8585 10.5544L69.8585 14.4871L63.3041 14.4871Z" fill="#D9D9D9"/>
<path d="M63.3041 4.00012H62.4388C58.5728 4.00012 55.4388 7.13412 55.4388 11.0001V14.4872H63.3041V4.00012Z" fill="#D9D9D9"/>
<path d="M61.9933 18.4198H63.3042C65.4761 18.4198 67.2368 16.659 67.2368 14.4871H61.9933V18.4198Z" fill="#6E7E89"/>
<path d="M60.6824 18.4198H59.3715C57.1995 18.4198 55.4388 16.659 55.4388 14.4871H60.6824V18.4198Z" fill="#6E7E89"/>
<rect x="60.6824" y="14.4871" width="1.31089" height="3.93266" fill="#6E7E89"/>
<ellipse cx="50.1954" cy="11.21" rx="3.93266" ry="7.20987" fill="white"/>
<ellipse cx="50.1953" cy="11.2099" rx="2.62177" ry="5.89899" fill="black"/>
<defs>
<filter id="filter0_d_223_236" x="0" y="0" width="67.2627" height="42" filterUnits="userSpaceOnUse" color-interpolation-filters="sRGB">
<feFlood flood-opacity="0" result="BackgroundImageFix"/>
<feColorMatrix in="SourceAlpha" type="matrix" values="0 0 0 0 0 0 0 0 0 0 0 0 0 0 0 0 0 0 127 0" result="hardAlpha"/>
<feOffset dy="4"/>
<feGaussianBlur stdDeviation="2"/>
<feComposite in2="hardAlpha" operator="out"/>
<feColorMatrix type="matrix" values="0 0 0 0 0 0 0 0 0 0 0 0 0 0 0 0 0 0 0.25 0"/>
<feBlend mode="normal" in2="BackgroundImageFix" result="effect1_dropShadow_223_236"/>
<feBlend mode="normal" in="SourceGraphic" in2="effect1_dropShadow_223_236" result="shape"/>
</filter>
</defs>
</svg>
