<svg width="1600" height="900" viewBox="0 0 1600 900" fill="none" xmlns="http://www.w3.org/2000/svg">
<g clip-path="url(#clip0_479_139)">
<rect width="1600" height="900" fill="white"/>
<rect width="1600" height="870" fill="url(#paint0_linear_479_139)"/>
<circle cx="1278" cy="153" r="108.5" fill="#F49685" stroke="#D9B1B1"/>
<g opacity="0.6" filter="url(#filter0_f_479_139)">
<path d="M1331.62 185.957C1367.76 134.793 1319.08 75.4133 1296.21 46.3057C1368.39 50.3396 1408.22 136.764 1374.5 204C1307.5 299 1216.48 246.901 1212.5 239C1207.31 228.69 1286.45 249.913 1331.62 185.957Z" fill="url(#paint1_linear_479_139)" style="mix-blend-mode:overlay"/>
</g>
<ellipse cx="1234.5" cy="105.5" rx="73.5" ry="69.5" fill="url(#paint2_radial_479_139)" style="mix-blend-mode:hard-light"/>
<g filter="url(#filter1_f_479_139)">
<path fill-rule="evenodd" clip-rule="evenodd" d="M1015.44 942.236V1015H1033.49V942.236L1095.03 823.055L1086.45 752.31C1086.2 750.229 1087.59 748.306 1089.65 747.903L1116.38 742.662C1117.32 742.478 1118 741.656 1118 740.7V739H926V740.7C926 741.656 926.677 742.478 927.615 742.662L954.546 747.941C956.521 748.328 957.901 750.122 957.768 752.13L953.077 823.055L1015.44 942.236ZM983.788 828.76L1022.75 921.041C1023.42 922.622 1025.64 922.683 1026.39 921.141L1071.47 828.86C1072.12 827.531 1071.15 825.982 1069.67 825.982H985.631C984.2 825.982 983.232 827.441 983.788 828.76ZM986.138 809.673H1069.93C1071.86 809.673 1073.28 807.883 1072.85 806.005L1060.19 750.572C1059.92 749.389 1058.96 748.486 1057.77 748.283L1028.22 743.263C1027.91 743.209 1027.58 743.207 1027.26 743.256L994.619 748.286C993.333 748.484 992.321 749.489 992.114 750.773L983.176 806.195C982.882 808.019 984.29 809.673 986.138 809.673Z" fill="url(#paint3_linear_479_139)" fill-opacity="0.6"/>
</g>
<g filter="url(#filter2_f_479_139)">
<path fill-rule="evenodd" clip-rule="evenodd" d="M626.436 940.236V1013H644.487V940.236L706.026 821.055L697.448 750.31C697.195 748.229 698.592 746.306 700.649 745.903L727.385 740.662C728.323 740.478 729 739.656 729 738.7V737H537V738.7C537 739.656 537.677 740.478 538.615 740.662L565.546 745.941C567.521 746.328 568.901 748.122 568.768 750.13L564.077 821.055L626.436 940.236ZM594.788 826.76L633.751 919.041C634.419 920.622 636.638 920.683 637.391 919.141L682.466 826.86C683.115 825.531 682.148 823.982 680.669 823.982H596.631C595.2 823.982 594.232 825.441 594.788 826.76ZM597.138 807.673H680.93C682.856 807.673 684.283 805.883 683.854 804.005L671.19 748.572C670.92 747.389 669.964 746.486 668.768 746.283L639.223 741.263C638.905 741.209 638.581 741.207 638.263 741.256L605.619 746.286C604.333 746.484 603.321 747.489 603.114 748.773L594.176 804.195C593.882 806.019 595.29 807.673 597.138 807.673Z" fill="url(#paint4_linear_479_139)" fill-opacity="0.6"/>
</g>
<g filter="url(#filter3_f_479_139)">
<path d="M216.523 746.074L240.513 759.294L239.51 762.293L197.51 762.259L197.548 715.159L216.548 715.174L216.523 746.074Z" fill="url(#paint5_linear_479_139)" fill-opacity="0.53" style="mix-blend-mode:darken"/>
<path d="M538.023 746.333L562.013 759.553L561.01 762.552L519.01 762.518L519.048 715.418L538.048 715.433L538.023 746.333Z" fill="url(#paint6_linear_479_139)" fill-opacity="0.53" style="mix-blend-mode:darken"/>
<path d="M1166.02 746.839L1190.01 760.059L1189.01 763.058L1147.01 763.024L1147.05 715.924L1166.05 715.939L1166.02 746.839Z" fill="url(#paint7_linear_479_139)" fill-opacity="0.53" style="mix-blend-mode:darken"/>
<path d="M1485.02 747.096L1509.01 760.316L1508.01 763.315L1466.01 763.281L1466.05 716.181L1485.05 716.196L1485.02 747.096Z" fill="url(#paint8_linear_479_139)" fill-opacity="0.53" style="mix-blend-mode:darken"/>
<rect width="1600" height="16.2" transform="matrix(1 0.000805587 0.000805587 -1 0 775)" fill="url(#paint9_linear_479_139)" fill-opacity="0.53" style="mix-blend-mode:darken"/>
<path d="M164.523 746.033L149.513 759.521L212.513 759.571L197.52 750.559L197.548 715.159L164.548 715.133L164.523 746.033Z" fill="url(#paint10_linear_479_139)" fill-opacity="0.53" style="mix-blend-mode:darken"/>
<path d="M486.023 746.292L471.012 759.78L534.012 759.83L519.02 750.818L519.048 715.418L486.048 715.392L486.023 746.292Z" fill="url(#paint11_linear_479_139)" fill-opacity="0.53" style="mix-blend-mode:darken"/>
<path d="M1114.02 746.797L1099.01 760.285L1162.01 760.336L1147.02 751.324L1147.05 715.924L1114.05 715.897L1114.02 746.797Z" fill="url(#paint12_linear_479_139)" fill-opacity="0.53" style="mix-blend-mode:darken"/>
<path d="M1433.02 747.055L1418.01 760.542L1481.01 760.593L1466.02 751.581L1466.05 716.181L1433.05 716.155L1433.02 747.055Z" fill="url(#paint13_linear_479_139)" fill-opacity="0.53" style="mix-blend-mode:darken"/>
</g>
<path d="M498 614C498 612.895 498.895 612 500 612H532C533.105 612 534 612.895 534 614V628H498V614Z" fill="#963F3F"/>
<path d="M530 617H537C539.209 617 541 618.791 541 621V628H530V617Z" fill="#963F3F"/>
<rect x="535" y="625" width="4" height="3" fill="white"/>
<path d="M349 614C349 612.895 349.895 612 351 612H383C384.105 612 385 612.895 385 614V628H349V614Z" fill="#963F3F"/>
<path d="M381 614H388C390.209 614 392 615.791 392 618V628H381V614Z" fill="#963F3F"/>
<rect x="386" y="620" width="4" height="8" fill="white"/>
<path d="M587 619C587 618.448 587.448 618 588 618H601C601.552 618 602 618.448 602 619V628H587V619Z" fill="#963F3F"/>
<path d="M611 623C608.387 623 606.685 622.09 605.654 620.983C604.4 619.635 602.841 618 601 618V628H604.333H611V623Z" fill="#963F3F"/>
<path d="M602 624H606V628H602V624Z" fill="white"/>
<path d="M1308 619C1308 618.448 1308.45 618 1309 618H1322C1322.55 618 1323 618.448 1323 619V628H1308V619Z" fill="#963F3F"/>
<path d="M1332 623C1329.39 623 1327.68 622.09 1326.65 620.983C1325.4 619.635 1323.84 618 1322 618V628H1325.33H1332V623Z" fill="#963F3F"/>
<path d="M1323 624H1327V628H1323V624Z" fill="white"/>
<path d="M633 619C633 618.448 633.448 618 634 618H647C647.552 618 648 618.448 648 619V628H633V619Z" fill="#963F3F"/>
<path d="M657 623C654.387 623 652.685 622.09 651.654 620.983C650.4 619.635 648.841 618 647 618V628H650.333H657V623Z" fill="#963F3F"/>
<path d="M630.577 622.899C631.739 622.473 632.332 620.779 632.557 619.327C632.67 618.6 633.264 618 634 618V628H632.667H630V623.589C630 623.263 630.272 623.011 630.577 622.899Z" fill="#963F3F"/>
<path d="M648 624H652V628H648V624Z" fill="white"/>
<path d="M919 619C919 618.448 919.448 618 920 618H933C933.552 618 934 618.448 934 619V628H919V619Z" fill="#963F3F"/>
<path d="M943 623C940.387 623 938.685 622.09 937.654 620.983C936.4 619.635 934.841 618 933 618V628H936.333H943V623Z" fill="#963F3F"/>
<path d="M916.577 622.899C917.739 622.473 918.332 620.779 918.557 619.327C918.67 618.6 919.264 618 920 618V628H918.667H916V623.589C916 623.263 916.272 623.011 916.577 622.899Z" fill="#963F3F"/>
<path d="M934 624H938V628H934V624Z" fill="white"/>
<path d="M1416 619C1416 618.448 1416.45 618 1417 618H1430C1430.55 618 1431 618.448 1431 619V628H1416V619Z" fill="#963F3F"/>
<path d="M1440 623C1437.39 623 1435.68 622.09 1434.65 620.983C1433.4 619.635 1431.84 618 1430 618V628H1433.33H1440V623Z" fill="#963F3F"/>
<path d="M1413.58 622.899C1414.74 622.473 1415.33 620.779 1415.56 619.327C1415.67 618.6 1416.26 618 1417 618V628H1415.67H1413V623.589C1413 623.263 1413.27 623.011 1413.58 622.899Z" fill="#963F3F"/>
<path d="M1431 624H1435V628H1431V624Z" fill="white"/>
<path d="M180 611C180 609.343 181.343 608 183 608H243C248.523 608 253 612.477 253 618V628H180V611Z" fill="#963F3F"/>
<rect x="244" y="620" width="4" height="8" fill="white"/>
<path d="M1099 611C1099 609.343 1100.34 608 1102 608H1162C1167.52 608 1172 612.477 1172 618V628H1099V611Z" fill="#963F3F"/>
<rect x="1163" y="620" width="4" height="8" fill="white"/>
<rect x="759" y="571" width="3" height="57" fill="#963F3F"/>
<path d="M759 571C759 569.343 760.343 568 762 568H780C781.105 568 782 568.895 782 570V571H759Z" fill="#963F3F"/>
<path d="M764 571H782V574C782 575.105 781.105 576 780 576H766C764.895 576 764 575.105 764 574V571Z" fill="white"/>
<rect x="104" y="571" width="3" height="57" fill="#963F3F"/>
<path d="M104 571C104 569.343 105.343 568 107 568H125C126.105 568 127 568.895 127 570V571H104Z" fill="#963F3F"/>
<path d="M109 571H127V574C127 575.105 126.105 576 125 576H111C109.895 576 109 575.105 109 574V571Z" fill="white"/>
<rect x="1234" y="571" width="3" height="57" fill="#963F3F"/>
<path d="M1234 571C1234 569.343 1235.34 568 1237 568H1255C1256.1 568 1257 568.895 1257 570V571H1234Z" fill="#963F3F"/>
<path d="M1239 571H1257V574C1257 575.105 1256.1 576 1255 576H1241C1239.9 576 1239 575.105 1239 574V571Z" fill="white"/>
<rect x="1486" y="571" width="3" height="57" fill="#963F3F"/>
<path d="M1486 571C1486 569.343 1487.34 568 1489 568H1507C1508.1 568 1509 568.895 1509 570V571H1486Z" fill="#963F3F"/>
<path d="M1491 571H1509V574C1509 575.105 1508.1 576 1507 576H1493C1491.9 576 1491 575.105 1491 574V571Z" fill="white"/>
<rect x="452" y="571" width="3" height="57" fill="#963F3F"/>
<path d="M452 571C452 569.343 453.343 568 455 568H473C474.105 568 475 568.895 475 570V571H452Z" fill="#963F3F"/>
<path d="M457 571H475V574C475 575.105 474.105 576 473 576H459C457.895 576 457 575.105 457 574V571Z" fill="white"/>
<g filter="url(#filter4_dd_479_139)">
<path fill-rule="evenodd" clip-rule="evenodd" d="M154.787 52.5495C157.51 47.4043 159 41.8265 159 35.9999C159 10.153 129.675 -10.8 93.5 -10.8C57.6398 -10.8 28.5104 9.79033 28.0066 35.327C-5.11977 37.6563 -31 57.6187 -31 81.8999C-31 107.747 -1.67465 128.7 34.5 128.7C46.706 128.7 58.1322 126.314 67.9152 122.16C79.8544 131.176 96.7579 136.8 115.5 136.8C151.675 136.8 181 115.847 181 89.9999C181 74.6845 170.704 61.0873 154.787 52.5495Z" fill="#FFDDD6"/>
<path fill-rule="evenodd" clip-rule="evenodd" d="M24 83.7207C24.7933 82.2138 28.76 79.2 38.28 79.2C59.5136 79.2 65.8495 85.4579 77.4939 96.959C79.3363 98.7788 81.3117 100.73 83.5 102.808C93.02 111.85 129.778 111.515 147.76 107.329C148.025 107.265 148.302 107.197 148.592 107.126C154.371 105.71 164.769 103.163 168.5 110.25C171.673 116.278 170.088 121.723 152 128.7C131 136.8 129.367 136.8 113.5 136.8C96.8211 136.8 72.26 128.878 67.5 122.85C67.0853 122.951 66.6491 123.058 66.193 123.169C64.3002 123.632 62.0663 124.179 59.6191 124.743L67.5 137.7C62.1667 139.867 48.8 144.2 38 144.2C10.7845 144.2 2.46398 138.531 -9.4594 130.408C-9.80309 130.174 -10.1498 129.938 -10.5 129.7C-10.5 108.742 8.26908 96.7476 24 91.8308V83.7207Z" fill="#FFB0A4"/>
</g>
<g clip-path="url(#clip1_479_139)" filter="url(#filter5_dd_479_139)">
<path fill-rule="evenodd" clip-rule="evenodd" d="M423.124 280.874C432.203 284.275 442.537 286.2 453.5 286.2C489.675 286.2 519 265.247 519 239.4C519 213.553 489.675 192.6 453.5 192.6C428.629 192.6 406.995 202.505 395.904 217.095C392.768 215.818 389.236 215.1 385.5 215.1C372.521 215.1 362 223.763 362 234.45C362 239.99 364.828 244.986 369.359 248.514C364.153 253.178 361 259.276 361 265.95C361 280.613 376.222 292.5 395 292.5C406.692 292.5 417.005 287.891 423.124 280.874Z" fill="#FFDDD6"/>
<path fill-rule="evenodd" clip-rule="evenodd" d="M463 239.4C459.438 239.4 452.313 241.126 452.313 248.031C451.819 248.031 451.32 248.03 450.816 248.029C441.151 248.003 429.875 247.973 423.104 257.202C417.404 264.97 417.404 270.509 418.117 272.307C415.979 276.982 407.288 286.117 389.619 285.254C386.2 285.254 384.34 285.75 384 287.55C383.66 289.35 384.461 292.481 397 292.05C411.357 291.556 417.13 286.265 421.831 281.956C422.263 281.561 422.685 281.174 423.104 280.8C424.202 281.134 425.241 281.491 426.305 281.856C431.776 283.735 437.911 285.842 456.159 286.259C455.46 290.412 455 294.011 455 296.6C484 299.1 501 281.6 505 276.6C505 247.8 478.5 244.6 463 244.6V239.4Z" fill="#FFB0A4"/>
</g>
<g clip-path="url(#clip2_479_139)" filter="url(#filter6_dd_479_139)">
<path fill-rule="evenodd" clip-rule="evenodd" d="M605.124 150.068C614.203 153.47 624.537 155.394 635.5 155.394C671.675 155.394 701 134.441 701 108.594C701 82.747 671.675 61.7939 635.5 61.7939C610.629 61.7939 588.995 71.6986 577.904 86.2887C574.768 85.0116 571.236 84.2939 567.5 84.2939C554.521 84.2939 544 92.9572 544 103.644C544 109.184 546.828 114.18 551.359 117.708C546.153 122.372 543 128.471 543 135.144C543 149.807 558.222 161.694 577 161.694C588.692 161.694 599.005 157.086 605.124 150.068Z" fill="#FFDDD6"/>
<path fill-rule="evenodd" clip-rule="evenodd" d="M645 108.594C641.438 108.594 634.313 110.32 634.313 117.225C633.819 117.225 633.32 117.224 632.816 117.223C623.151 117.197 611.875 117.167 605.104 126.396C599.404 134.165 599.404 139.703 600.117 141.501C597.979 146.177 589.288 155.311 571.619 154.448C568.2 154.448 566.34 154.944 566 156.744C565.66 158.544 566.461 161.676 579 161.244C593.357 160.75 599.13 155.459 603.831 151.15C604.263 150.755 604.685 150.368 605.104 149.994C606.202 150.328 607.241 150.685 608.305 151.05C613.776 152.929 619.911 155.036 638.159 155.453C637.46 159.606 637 163.205 637 165.794C666 168.294 683 150.794 687 145.794C687 116.994 660.5 113.794 645 113.794V108.594Z" fill="#FFB0A4"/>
</g>
<g filter="url(#filter7_dd_479_139)">
<path d="M273 305.1C287.524 305.1 299.323 313.174 299.531 323.188C315.785 324.108 328.48 331.935 328.48 341.455C328.48 342.268 328.387 343.068 328.208 343.853C332.625 342.551 337.638 341.815 342.953 341.815C359.2 341.815 372.633 348.691 374.807 357.623C384.986 359.9 392 364.699 392 370.251C392 378.004 378.32 384.289 361.446 384.289C356.62 384.289 352.054 383.775 347.996 382.859C340.353 387.23 328.332 390.048 314.811 390.048C291.719 390.048 273 381.829 273 371.691C273 366.616 277.689 362.023 285.268 358.7C276.412 356.851 269.378 352.843 266.123 347.792C259.325 352.858 247.479 356.213 234.003 356.213C227.436 356.213 221.255 355.416 215.857 354.012C214.876 363.27 200.877 370.611 183.75 370.611C165.987 370.611 151.588 362.714 151.588 352.973C151.588 343.232 165.987 335.336 183.75 335.336C188.047 335.336 192.147 335.798 195.894 336.636C197.199 327.066 213.762 319.498 234.003 319.498C238.491 319.498 242.797 319.87 246.796 320.553C248.809 311.795 259.774 305.1 273 305.1Z" fill="#FFD9D2"/>
<path d="M133.095 362.692C133.095 366.649 130.626 370.268 126.544 373.044C126.622 373.31 126.662 373.579 126.662 373.85C126.662 380.013 106.143 385.009 80.8311 385.009C55.5193 385.009 35 380.013 35 373.85C35 367.819 54.6559 362.905 79.223 362.699L79.223 362.692C79.223 353.945 91.2825 346.854 106.159 346.854C121.035 346.854 133.095 353.945 133.095 362.692Z" fill="#FFD9D2"/>
<path d="M276.216 305.46C293.262 305.46 299.534 317.338 299.534 323.097C305.564 323.097 311.193 325.031 317.223 327.417C326.147 330.947 328.576 337.215 328.312 342.604C328.058 347.789 323.69 351.392 319.233 354.053C314.007 357.652 312.801 356.933 309.987 345.774C305.162 331.016 283.855 333.536 277.422 336.055C270.99 338.575 271.392 336.415 269.382 329.936C267.372 323.457 253.703 324.897 255.713 321.657C261.502 311.003 272.598 311.459 277.422 313.019C276.082 310.859 273.965 305.46 276.216 305.46Z" fill="#FFB0A4"/>
<path fill-rule="evenodd" clip-rule="evenodd" d="M124.652 351.173C117.684 348.294 103.264 343.902 101.334 349.374C100.145 352.747 105.507 353.23 111.393 353.761C117.441 354.306 124.041 354.902 124.652 358.732C125.617 364.78 126.93 367.491 127.466 368.091L77.6148 371.331C73.9966 370.611 66.3581 370.827 64.75 377.45C63.1419 384.073 79.357 385.969 87.6655 386.089C101.602 388.008 134.622 391.704 155.206 391.128C175.79 390.552 225.159 388.968 247.27 388.248C249.816 390.648 257.482 395.375 267.774 395.087C274.841 394.89 278.875 393.931 282.342 393.108C285.186 392.433 287.649 391.848 291.091 391.848C294.245 391.848 298.22 390.866 301.745 388.574C306.797 389.963 312.797 390.768 319.233 390.768C337.218 390.768 351.797 384.483 351.797 376.73C351.797 368.977 337.218 362.692 319.233 362.692C315.576 362.692 312.059 362.952 308.778 363.431C303.42 352.265 286.161 348.886 276.216 354.413C275.814 343.255 255.311 322.377 227.169 333.896C213.193 339.735 218.651 341.278 222.414 342.342C223.522 342.655 224.482 342.927 224.757 343.255C225.722 344.406 226.767 345.894 227.169 346.494C225.829 346.374 222.505 346.566 219.932 348.294C219.083 348.18 218.035 348.001 216.817 347.794C206.511 346.038 183.995 342.201 165.659 357.653C154 351.173 139.527 344.694 124.652 351.173Z" fill="#FFB0A4"/>
</g>
<g filter="url(#filter8_dd_479_139)">
<path d="M1376 299.7C1361.48 299.7 1349.68 307.774 1349.47 317.788C1333.22 318.708 1320.52 326.535 1320.52 336.055C1320.52 336.868 1320.61 337.668 1320.79 338.453C1316.38 337.151 1311.36 336.415 1306.05 336.415C1289.8 336.415 1276.37 343.291 1274.19 352.223C1264.01 354.5 1257 359.299 1257 364.851C1257 372.604 1270.68 378.889 1287.55 378.889C1292.38 378.889 1296.95 378.375 1301 377.459C1308.65 381.83 1320.67 384.648 1334.19 384.648C1357.28 384.648 1376 376.429 1376 366.291C1376 361.216 1371.31 356.623 1363.73 353.3C1372.59 351.451 1379.62 347.443 1382.88 342.392C1389.68 347.458 1401.52 350.813 1415 350.813C1421.56 350.813 1427.74 350.016 1433.14 348.612C1434.12 357.87 1448.12 365.211 1465.25 365.211C1483.01 365.211 1497.41 357.314 1497.41 347.573C1497.41 337.832 1483.01 329.936 1465.25 329.936C1460.95 329.936 1456.85 330.398 1453.11 331.236C1451.8 321.666 1435.24 314.098 1415 314.098C1410.51 314.098 1406.2 314.47 1402.2 315.153C1400.19 306.395 1389.23 299.7 1376 299.7Z" fill="#FFD9D2"/>
<path d="M1515.91 357.292C1515.91 361.25 1518.37 364.868 1522.46 367.644C1522.38 367.91 1522.34 368.179 1522.34 368.45C1522.34 374.613 1542.86 379.609 1568.17 379.609C1593.48 379.609 1614 374.613 1614 368.45C1614 362.419 1594.34 357.505 1569.78 357.299L1569.78 357.292C1569.78 348.545 1557.72 341.454 1542.84 341.454C1527.96 341.454 1515.91 348.545 1515.91 357.292Z" fill="#FFD9D2"/>
<path d="M1372.78 300.06C1355.74 300.06 1349.47 311.938 1349.47 317.697C1343.44 317.697 1337.81 319.631 1331.78 322.017C1322.85 325.547 1320.42 331.815 1320.69 337.204C1320.94 342.389 1325.31 345.993 1329.77 348.653C1334.99 352.253 1336.2 351.533 1339.01 340.374C1343.84 325.616 1365.15 328.136 1371.58 330.656C1378.01 333.175 1377.61 331.015 1379.62 324.536C1381.63 318.057 1395.3 319.497 1393.29 316.258C1387.5 305.603 1376.4 306.059 1371.58 307.619C1372.92 305.459 1375.04 300.06 1372.78 300.06Z" fill="#FFB0A4"/>
<path fill-rule="evenodd" clip-rule="evenodd" d="M1524.35 345.774C1531.32 342.894 1545.74 338.503 1547.67 343.974C1548.86 347.347 1543.49 347.83 1537.61 348.361C1531.56 348.907 1524.96 349.502 1524.35 353.332C1523.38 359.38 1522.07 362.091 1521.53 362.691L1571.39 365.931C1575 365.211 1582.64 365.427 1584.25 372.05C1585.86 378.673 1569.64 380.569 1561.33 380.689C1547.4 382.608 1514.38 386.304 1493.79 385.728C1473.21 385.152 1423.84 383.568 1401.73 382.848C1399.18 385.248 1391.52 389.975 1381.23 389.687C1374.16 389.49 1370.13 388.532 1366.66 387.708C1363.81 387.033 1361.35 386.448 1357.91 386.448C1354.76 386.448 1350.78 385.466 1347.25 383.174C1342.2 384.563 1336.2 385.368 1329.77 385.368C1311.78 385.368 1297.2 379.083 1297.2 371.33C1297.2 363.577 1311.78 357.292 1329.77 357.292C1333.42 357.292 1336.94 357.552 1340.22 358.031C1345.58 346.865 1362.84 343.486 1372.78 349.013C1373.19 337.855 1393.69 316.978 1421.83 328.496C1435.81 334.335 1430.35 335.879 1426.59 336.942C1425.48 337.255 1424.52 337.527 1424.24 337.855C1423.28 339.006 1422.23 340.494 1421.83 341.094C1423.17 340.974 1426.49 341.166 1429.07 342.894C1429.92 342.78 1430.96 342.601 1432.18 342.394C1442.49 340.638 1465.01 336.801 1483.34 352.253C1495 345.774 1509.47 339.294 1524.35 345.774Z" fill="#FFB0A4"/>
</g>
<g filter="url(#filter9_dd_479_139)">
<path d="M822.314 162.34C835.922 163.358 845.939 164.885 849.247 165.521C949.653 160.643 1154.01 149.742 1168.18 145.161C1185.9 139.435 1180.94 133.073 1183.78 127.347C1186.04 122.766 1181.89 121.621 1179.52 121.621C1179.05 121.621 1173.84 121.907 1167.46 121.907C1168.88 96.4569 1143.14 89.3842 1128.49 88.5359C1126.84 81.9614 1118.29 68.8124 1097.31 68.8124C1076.33 68.8124 1069.2 82.3856 1068.25 89.1721C1064.47 88.3238 1054.5 86.6272 1044.86 86.6272C1032.81 86.6272 1027.14 89.1721 1015.09 93.6258C1015.8 73.2661 995.249 64.3587 983.2 63.0862C971.151 61.8137 962.646 66.9037 957.685 71.3574C952.724 75.8111 944.219 72.6299 924.374 73.9023C904.529 75.1748 896.024 86.6272 894.607 91.7171C893.189 96.8071 878.305 98.7158 872.635 101.261C866.965 103.806 861.295 107.623 852.082 117.803C842.868 127.983 849.247 134.345 849.247 136.254C849.247 138.163 849.247 138.799 831.528 138.799C811.116 139.308 806.013 147.07 806.013 150.888C805.777 154.281 808.706 161.322 822.314 162.34Z" fill="#FFD9D2"/>
<path d="M886.102 120.984C886.102 113.858 908.309 115.894 919.413 117.803C930.28 118.227 954.992 121.621 966.899 131.8C981.783 119.712 1006.59 118.439 1027.14 119.076C1047.7 119.712 1025.73 113.349 1029.27 110.168C1043.44 99.9883 1052.66 99.3521 1073.21 99.9883C1093.77 100.625 1098.73 127.347 1102.98 128.619C1107.23 129.892 1117.15 118.439 1129.91 128.619C1142.67 138.799 1154.01 136.254 1166.77 133.709C1179.52 131.164 1178.82 128.619 1176.69 124.802C1174.99 121.748 1178.34 121.408 1180.23 121.621C1190.16 122.681 1210 130.019 1210 150.888C1210 176.974 1179.52 176.974 1172.44 178.882C1165.35 180.791 1093.06 176.974 1074.63 178.882C1056.2 180.791 961.229 182.7 923.665 182.7C886.102 182.7 883.975 175.701 874.762 169.339C865.548 162.976 841.45 169.339 840.033 159.159C840.6 144.398 877.597 142.829 896.024 143.889C899.332 144.525 905.805 143.889 905.238 136.254C904.529 126.711 886.102 129.892 886.102 120.984Z" fill="#FFB0A4"/>
<path d="M969.025 78.356C983.767 76.3201 985.09 67.752 983.909 63.7225C983.909 62.8741 985.043 61.432 989.579 62.45C1013.39 67.0309 1016.51 88.5359 1015.09 98.7158C1013.68 100.412 1010.13 103.297 1007.3 101.261C997.375 92.9896 987.453 93.6259 979.656 93.6259C975.404 87.2634 950.598 80.901 969.025 78.356Z" fill="#FFB0A4"/>
<path d="M1100.14 75.811C1104.68 70.7211 1110.54 70.7211 1112.9 71.3573C1122.54 73.3933 1127.79 84.5063 1129.2 89.8083C1134.16 89.1721 1146.78 89.8083 1157.55 97.4432C1171.02 106.987 1167.46 112.999 1167.46 121.907C1154.7 121.27 1146.21 128.619 1141.96 129.255C1141.96 120.348 1139.83 115.894 1129.2 109.532C1118.57 103.169 1111.48 105.714 1102.27 109.532C1095.18 91.717 1076.76 94.262 1078.17 87.8996C1081.01 75.811 1091.64 78.3559 1100.14 75.811Z" fill="#FFB0A4"/>
</g>
<g filter="url(#filter10_dd_479_139)">
<path d="M1376.42 209.285C1371.25 206.683 1365.3 205.2 1358.97 205.2C1339.1 205.2 1323 219.784 1323 237.775C1323 246.965 1327.2 255.266 1333.96 261.188C1329.76 264.376 1327.32 268.197 1327.32 272.304C1327.32 283.458 1345.35 292.5 1367.6 292.5C1389.85 292.5 1407.88 283.458 1407.88 272.304C1407.88 270.003 1407.11 267.793 1405.7 265.733C1408.23 264.867 1410.62 263.739 1412.83 262.386C1418.22 267.283 1425.93 270.349 1434.5 270.349C1436.96 270.349 1439.35 270.096 1441.64 269.618C1445.67 271.74 1450.36 272.955 1455.36 272.955C1458.64 272.955 1461.78 272.432 1464.69 271.474C1468.11 274.79 1472.97 276.864 1478.38 276.864C1479.26 276.864 1480.13 276.808 1480.99 276.7C1484.25 281.479 1490.23 284.682 1497.08 284.682C1507.41 284.682 1515.78 277.39 1515.78 268.395C1515.78 259.399 1507.41 252.107 1497.08 252.107C1496.39 252.107 1495.7 252.14 1495.03 252.204C1492.48 247.71 1487.78 244.381 1482.17 243.334C1479.67 231.991 1468.62 223.442 1455.36 223.442C1453.21 223.442 1451.12 223.666 1449.12 224.089C1444.81 222.019 1439.82 220.836 1434.5 220.836C1430.92 220.836 1427.49 221.371 1424.31 222.352C1418.62 212.175 1406.95 205.2 1393.49 205.2C1387.28 205.2 1381.46 206.685 1376.42 209.285Z" fill="#FFD9D2"/>
<path d="M1359.79 246.668C1387.99 233.638 1406.07 243.845 1411.58 250.577C1413.98 248.405 1421.22 243.541 1431 241.456C1443.23 238.85 1451.87 246.668 1451.87 252.531C1451.87 258.395 1448.99 265.561 1457.62 265.561C1466.25 265.561 1460.5 265.561 1459.78 261.001C1459.06 256.44 1463.37 250.577 1470.57 252.531C1477.76 254.486 1479.92 267.515 1479.92 272.727C1479.92 277.939 1494.31 279.242 1504.38 275.333C1505.1 265.229 1520.92 267.515 1514.45 279.242C1507.97 290.969 1499.34 281.848 1479.92 285.106C1460.5 288.363 1439.64 288.363 1400.07 288.363C1360.51 288.363 1359.79 281.848 1359.79 276.636C1359.79 274.185 1358.13 271.462 1356.28 269.238L1356.27 269.223C1354.1 266.63 1351.84 263.912 1351.78 260.664C1351.69 256.108 1353.34 250.321 1359.79 246.668Z" fill="#FFB0A4"/>
</g>
<g filter="url(#filter11_dd_479_139)">
<path d="M869.58 285.099C874.749 282.487 880.7 281 887.033 281C906.897 281 923 295.633 923 313.683C923 322.904 918.798 331.233 912.039 337.175C916.239 340.374 918.684 344.207 918.684 348.327C918.684 359.519 900.649 368.591 878.401 368.591C856.154 368.591 838.118 359.519 838.118 348.327C838.118 346.019 838.885 343.801 840.298 341.735C837.768 340.866 835.38 339.734 833.173 338.377C827.785 343.29 820.07 346.366 811.503 346.366C809.039 346.366 806.646 346.112 804.358 345.633C800.326 347.762 795.641 348.981 790.642 348.981C787.363 348.981 784.219 348.456 781.306 347.495C777.892 350.822 773.025 352.903 767.623 352.903C766.737 352.903 765.866 352.847 765.012 352.739C761.753 357.534 755.766 360.747 748.921 360.747C738.592 360.747 730.218 353.431 730.218 344.405C730.218 335.38 738.592 328.064 748.921 328.064C749.614 328.064 750.299 328.097 750.972 328.161C753.518 323.652 758.217 320.312 763.835 319.261C766.33 307.88 777.384 299.303 790.642 299.303C792.788 299.303 794.875 299.527 796.878 299.952C801.189 297.875 806.181 296.688 811.503 296.688C815.083 296.688 818.514 297.225 821.689 298.209C827.385 287.998 839.045 281 852.505 281C858.716 281 864.545 282.49 869.58 285.099Z" fill="#FFD9D2"/>
<path d="M886.209 322.606C858.011 309.533 839.932 319.773 834.417 326.528C832.019 324.349 824.778 319.468 814.995 317.377C802.766 314.762 794.134 322.606 794.134 328.489C794.134 334.372 797.012 341.562 788.38 341.562C779.748 341.562 785.502 341.562 786.222 336.987C786.941 332.411 782.625 326.528 775.432 328.489C768.238 330.45 766.08 343.523 766.08 348.753C766.08 353.982 751.694 355.289 741.623 351.367C740.904 341.229 725.078 343.523 731.552 355.289C738.026 367.055 746.658 357.904 766.08 361.172C785.502 364.44 806.363 364.44 845.927 364.44C885.49 364.44 886.209 357.904 886.209 352.675C886.209 350.215 887.868 347.483 889.721 345.252L889.734 345.236C891.895 342.635 894.161 339.907 894.223 336.649C894.311 332.078 892.663 326.271 886.209 322.606Z" fill="#FFB0A4"/>
</g>
<g clip-path="url(#clip3_479_139)" filter="url(#filter12_dd_479_139)">
<path fill-rule="evenodd" clip-rule="evenodd" d="M904.876 357.568C895.797 360.981 885.463 362.912 874.5 362.912C838.325 362.912 809 341.889 809 315.956C809 290.023 838.325 269 874.5 269C899.371 269 921.005 278.938 932.096 293.576C935.232 292.295 938.764 291.575 942.5 291.575C955.479 291.575 966 300.267 966 310.99C966 316.548 963.172 321.561 958.641 325.1C963.847 329.78 967 335.899 967 342.594C967 357.307 951.778 369.233 933 369.233C921.308 369.233 910.995 364.609 904.876 357.568Z" fill="#FFDDD6"/>
<path fill-rule="evenodd" clip-rule="evenodd" d="M865 315.956C868.562 315.956 875.687 317.688 875.687 324.616C876.181 324.616 876.68 324.615 877.184 324.614C886.849 324.588 898.125 324.558 904.896 333.818C910.596 341.612 910.596 347.169 909.883 348.973C912.021 353.664 920.712 362.829 938.381 361.963C941.8 361.963 943.66 362.461 944 364.267C944.34 366.073 943.539 369.215 931 368.782C916.643 368.286 910.87 362.977 906.169 358.654C905.737 358.258 905.315 357.869 904.896 357.494C903.798 357.829 902.759 358.187 901.695 358.554C896.23 360.437 890.1 362.549 871.893 362.97C872.563 366.992 873 370.476 873 373C844 375.5 827 358 823 353C823 324.2 849.5 321 865 321V315.956Z" fill="#FFB0A4"/>
</g>
<path fill-rule="evenodd" clip-rule="evenodd" d="M1015.44 329.231V186.461H1033.49V329.231L1095.03 563.077L1086.18 706.201C1086.07 707.943 1087.11 709.554 1088.74 710.181L1116.72 720.943C1117.49 721.24 1118 721.982 1118 722.809V728H926V722.809C926 721.982 926.51 721.24 927.282 720.943L955.342 710.15C956.933 709.538 957.961 707.986 957.904 706.282L953.077 563.077L1015.44 329.231ZM983.136 554.912L1022.65 371.299C1023.09 369.228 1026.03 369.181 1026.54 371.237L1072.25 554.85C1072.57 556.112 1071.61 557.333 1070.31 557.333H985.092C983.818 557.333 982.868 556.158 983.136 554.912ZM985.872 589.333H1070.32C1072.12 589.333 1073.51 590.898 1073.3 592.68L1059.96 707.232C1059.83 708.389 1059.04 709.363 1057.93 709.732L1028.65 719.493C1028.06 719.689 1027.42 719.698 1026.83 719.519L994.416 709.719C993.237 709.362 992.395 708.321 992.294 707.093L982.882 592.579C982.738 590.831 984.118 589.333 985.872 589.333Z" fill="#E47F70"/>
<path fill-rule="evenodd" clip-rule="evenodd" d="M627.436 329.231V186.461H645.487V329.231L707.026 563.077L698.181 706.201C698.073 707.943 699.108 709.554 700.737 710.181L728.718 720.943C729.49 721.24 730 721.982 730 722.809V728H538V722.809C538 721.982 538.51 721.24 539.282 720.943L567.342 710.15C568.933 709.538 569.961 707.986 569.904 706.282L565.077 563.077L627.436 329.231ZM595.136 554.912L634.648 371.299C635.094 369.228 638.032 369.181 638.544 371.237L684.254 554.85C684.568 556.112 683.613 557.333 682.313 557.333H597.092C595.818 557.333 594.868 556.158 595.136 554.912ZM597.872 589.333H682.323C684.117 589.333 685.51 590.898 685.303 592.68L671.964 707.233C671.83 708.389 671.038 709.363 669.933 709.732L640.648 719.493C640.06 719.689 639.425 719.698 638.831 719.519L606.416 709.719C605.237 709.362 604.395 708.321 604.294 707.093L594.882 592.579C594.738 590.831 596.118 589.333 597.872 589.333Z" fill="#E47F70"/>
<path d="M216.5 676.5L240.5 654.5L239.5 649.5H197.5V728H216.5V676.5Z" fill="#E47F70"/>
<path d="M538 676.5L562 654.5L561 649.5H519V728H538V676.5Z" fill="#E47F70"/>
<path d="M1166 676.5L1190 654.5L1189 649.5H1147V728H1166V676.5Z" fill="#E47F70"/>
<path d="M1485 676.5L1509 654.5L1508 649.5H1466V728H1485V676.5Z" fill="#E47F70"/>
<path d="M164.5 676.5L149.5 654H212.5L197.5 669V728H164.5V676.5Z" fill="#F89F91"/>
<path d="M486 676.5L471 654H534L519 669V728H486V676.5Z" fill="#F89F91"/>
<path d="M1114 676.5L1099 654H1162L1147 669V728H1114V676.5Z" fill="#F89F91"/>
<path d="M1433 676.5L1418 654H1481L1466 669V728H1433V676.5Z" fill="#F89F91"/>
<rect y="628" width="1600" height="27" fill="#F89F91"/>
<path d="M1028 728V719.637L994.168 709.355C993.451 709.137 992.916 708.536 992.782 707.799L992 703.5L983 592V555.5L1023 369.5V186H1015V329.5L952.5 563L957.476 707.796C957.49 708.218 957.238 708.604 956.845 708.76L926 721V728H1028Z" fill="url(#paint14_linear_479_139)"/>
<path d="M1028 728V719.637L994.168 709.355C993.451 709.137 992.916 708.536 992.782 707.799L992 703.5L983 592V555.5L1023 369.5V186H1015V329.5L952.5 563L957.476 707.796C957.49 708.218 957.238 708.604 956.845 708.76L926 721V728H1028Z" fill="url(#paint15_linear_479_139)" fill-opacity="0.2"/>
<path d="M640 728V719.637L606.168 709.355C605.451 709.137 604.916 708.536 604.782 707.799L604 703.5L595 592V555.5L635 369.5V186H627V329.5L564.5 563L569.476 707.796C569.49 708.218 569.238 708.604 568.845 708.76L538 721V728H640Z" fill="url(#paint16_linear_479_139)"/>
<path d="M640 728V719.637L606.168 709.355C605.451 709.137 604.916 708.536 604.782 707.799L604 703.5L595 592V555.5L635 369.5V186H627V329.5L564.5 563L569.476 707.796C569.49 708.218 569.238 708.604 568.845 708.76L538 721V728H640Z" fill="url(#paint17_linear_479_139)" fill-opacity="0.2"/>
<rect y="862" width="1600" height="43" fill="url(#paint18_linear_479_139)"/>
<g filter="url(#filter13_f_479_139)">
<ellipse cx="797.5" cy="869" rx="58.5" ry="11" fill="black"/>
</g>
<path fill-rule="evenodd" clip-rule="evenodd" d="M765 811H779V855L796.5 855L797.5 855C797.502 855 797.505 855 797.507 855L805 855V811H819V855H839.5C843.642 855 847 858.358 847 862.5C847 866.642 843.642 870 839.5 870H797.5L796.5 870C796.497 870 796.495 870 796.492 870L754.5 870C750.358 870 747 866.642 747 862.5C747 858.358 750.358 855 754.5 855L765 855V811Z" fill="#2E3A40"/>
<path d="M749.063 678H844.188C855.608 678 864.867 687.158 864.867 698.455V841.636C864.867 850.674 857.46 858 848.324 858H782.15C773.014 858 765.607 850.674 765.607 841.636V728.447C755.201 714.281 749.063 696.85 749.063 678Z" fill="#181F21"/>
<path d="M856.806 744.528V691.994C875.138 691.994 890 706.694 890 724.828V744.528H856.806Z" fill="#D9D9D9"/>
<path d="M856.806 691.994L845.924 691.994C829.935 691.994 816.973 704.815 816.973 720.631V744.528L856.806 744.528V691.994Z" fill="#D9D9D9"/>
<path d="M850.167 764.228H856.806C867.805 764.228 876.722 755.408 876.722 744.528H850.167V764.228Z" fill="#6E7E89"/>
<path d="M843.528 764.228H836.889C825.89 764.228 816.973 755.408 816.973 744.528L843.528 744.528V764.228Z" fill="#6E7E89"/>
<path d="M843.528 744.528H850.167V764.228H843.528V744.528Z" fill="#6E7E89"/>
<path d="M794.558 845.727C794.558 809.578 814.072 780.273 850.618 780.273C858.89 780.273 864.867 792.332 864.867 794.591V841.636C864.867 850.674 857.46 858 848.324 858H794.558V845.727Z" fill="#6E7E89"/>
<path d="M724.248 763.909H778.014C789.435 763.909 798.694 773.067 798.694 784.364V829.364H765.607C742.765 829.364 724.248 811.048 724.248 788.455V763.909Z" fill="#6E7E89"/>
<path d="M710 778.664L772.603 777.521C784.022 777.313 793.449 786.3 793.66 797.595L794.559 845.789L752.631 846.554C729.794 846.971 710.939 828.996 710.517 806.407L710 778.664Z" fill="#6E7E89"/>
<path d="M715.977 768H790.422C801.843 768 811.101 777.158 811.101 788.455V858H757.335C734.494 858 715.977 839.684 715.977 817.091V768Z" fill="#2E3A40"/>
<path d="M810.334 728.111C810.334 748.058 801.417 764.228 790.418 764.228C779.418 764.228 770.501 748.058 770.501 728.111C770.501 708.164 779.418 691.994 790.418 691.994C801.417 691.994 810.334 708.164 810.334 728.111Z" fill="white"/>
<path d="M803.695 728.111C803.695 744.431 797.751 757.661 790.418 757.661C783.085 757.661 777.14 744.431 777.14 728.111C777.14 711.791 783.085 698.561 790.418 698.561C797.751 698.561 803.695 711.791 803.695 728.111Z" fill="#181F21"/>
<g style="mix-blend-mode:color-burn">
<path d="M865 843.002C865 873.502 779 858.002 763.5 858.002C733.953 858.002 716.5 841.173 716.5 823.5C716.5 805.827 701 767 725 764.002C725 836 826.5 871.5 865 843.002Z" fill="#D9D9D9"/>
</g>
</g>
<defs>
<filter id="filter0_f_479_139" x="1208.26" y="42.3057" width="182.388" height="222.036" filterUnits="userSpaceOnUse" color-interpolation-filters="sRGB">
<feFlood flood-opacity="0" result="BackgroundImageFix"/>
<feBlend mode="normal" in="SourceGraphic" in2="BackgroundImageFix" result="shape"/>
<feGaussianBlur stdDeviation="2" result="effect1_foregroundBlur_479_139"/>
</filter>
<filter id="filter1_f_479_139" x="911" y="724" width="222" height="306" filterUnits="userSpaceOnUse" color-interpolation-filters="sRGB">
<feFlood flood-opacity="0" result="BackgroundImageFix"/>
<feBlend mode="normal" in="SourceGraphic" in2="BackgroundImageFix" result="shape"/>
<feGaussianBlur stdDeviation="7.5" result="effect1_foregroundBlur_479_139"/>
</filter>
<filter id="filter2_f_479_139" x="522" y="722" width="222" height="306" filterUnits="userSpaceOnUse" color-interpolation-filters="sRGB">
<feFlood flood-opacity="0" result="BackgroundImageFix"/>
<feBlend mode="normal" in="SourceGraphic" in2="BackgroundImageFix" result="shape"/>
<feGaussianBlur stdDeviation="7.5" result="effect1_foregroundBlur_479_139"/>
</filter>
<filter id="filter3_f_479_139" x="-10" y="705.133" width="1620.01" height="81.1562" filterUnits="userSpaceOnUse" color-interpolation-filters="sRGB">
<feFlood flood-opacity="0" result="BackgroundImageFix"/>
<feBlend mode="normal" in="SourceGraphic" in2="BackgroundImageFix" result="shape"/>
<feGaussianBlur stdDeviation="5" result="effect1_foregroundBlur_479_139"/>
</filter>
<filter id="filter4_dd_479_139" x="-49" y="-20.8" width="248" height="191" filterUnits="userSpaceOnUse" color-interpolation-filters="sRGB">
<feFlood flood-opacity="0" result="BackgroundImageFix"/>
<feColorMatrix in="SourceAlpha" type="matrix" values="0 0 0 0 0 0 0 0 0 0 0 0 0 0 0 0 0 0 127 0" result="hardAlpha"/>
<feOffset dy="4"/>
<feGaussianBlur stdDeviation="2"/>
<feColorMatrix type="matrix" values="0 0 0 0 0 0 0 0 0 0 0 0 0 0 0 0 0 0 0.3 0"/>
<feBlend mode="normal" in2="BackgroundImageFix" result="effect1_dropShadow_479_139"/>
<feColorMatrix in="SourceAlpha" type="matrix" values="0 0 0 0 0 0 0 0 0 0 0 0 0 0 0 0 0 0 127 0" result="hardAlpha"/>
<feMorphology radius="6" operator="dilate" in="SourceAlpha" result="effect2_dropShadow_479_139"/>
<feOffset dy="8"/>
<feGaussianBlur stdDeviation="6"/>
<feColorMatrix type="matrix" values="0 0 0 0 0 0 0 0 0 0 0 0 0 0 0 0 0 0 0.15 0"/>
<feBlend mode="normal" in2="effect1_dropShadow_479_139" result="effect2_dropShadow_479_139"/>
<feBlend mode="normal" in="SourceGraphic" in2="effect2_dropShadow_479_139" result="shape"/>
</filter>
<filter id="filter5_dd_479_139" x="350" y="185.6" width="180" height="121.9" filterUnits="userSpaceOnUse" color-interpolation-filters="sRGB">
<feFlood flood-opacity="0" result="BackgroundImageFix"/>
<feColorMatrix in="SourceAlpha" type="matrix" values="0 0 0 0 0 0 0 0 0 0 0 0 0 0 0 0 0 0 127 0" result="hardAlpha"/>
<feOffset dy="1"/>
<feGaussianBlur stdDeviation="1.5"/>
<feColorMatrix type="matrix" values="0 0 0 0 0 0 0 0 0 0 0 0 0 0 0 0 0 0 0.3 0"/>
<feBlend mode="normal" in2="BackgroundImageFix" result="effect1_dropShadow_479_139"/>
<feColorMatrix in="SourceAlpha" type="matrix" values="0 0 0 0 0 0 0 0 0 0 0 0 0 0 0 0 0 0 127 0" result="hardAlpha"/>
<feMorphology radius="3" operator="dilate" in="SourceAlpha" result="effect2_dropShadow_479_139"/>
<feOffset dy="4"/>
<feGaussianBlur stdDeviation="4"/>
<feColorMatrix type="matrix" values="0 0 0 0 0 0 0 0 0 0 0 0 0 0 0 0 0 0 0.15 0"/>
<feBlend mode="normal" in2="effect1_dropShadow_479_139" result="effect2_dropShadow_479_139"/>
<feBlend mode="normal" in="SourceGraphic" in2="effect2_dropShadow_479_139" result="shape"/>
</filter>
<filter id="filter6_dd_479_139" x="532" y="54.7939" width="180" height="121.9" filterUnits="userSpaceOnUse" color-interpolation-filters="sRGB">
<feFlood flood-opacity="0" result="BackgroundImageFix"/>
<feColorMatrix in="SourceAlpha" type="matrix" values="0 0 0 0 0 0 0 0 0 0 0 0 0 0 0 0 0 0 127 0" result="hardAlpha"/>
<feOffset dy="1"/>
<feGaussianBlur stdDeviation="1.5"/>
<feColorMatrix type="matrix" values="0 0 0 0 0 0 0 0 0 0 0 0 0 0 0 0 0 0 0.3 0"/>
<feBlend mode="normal" in2="BackgroundImageFix" result="effect1_dropShadow_479_139"/>
<feColorMatrix in="SourceAlpha" type="matrix" values="0 0 0 0 0 0 0 0 0 0 0 0 0 0 0 0 0 0 127 0" result="hardAlpha"/>
<feMorphology radius="3" operator="dilate" in="SourceAlpha" result="effect2_dropShadow_479_139"/>
<feOffset dy="4"/>
<feGaussianBlur stdDeviation="4"/>
<feColorMatrix type="matrix" values="0 0 0 0 0 0 0 0 0 0 0 0 0 0 0 0 0 0 0.15 0"/>
<feBlend mode="normal" in2="effect1_dropShadow_479_139" result="effect2_dropShadow_479_139"/>
<feBlend mode="normal" in="SourceGraphic" in2="effect2_dropShadow_479_139" result="shape"/>
</filter>
<filter id="filter7_dd_479_139" x="17" y="295.1" width="393" height="126" filterUnits="userSpaceOnUse" color-interpolation-filters="sRGB">
<feFlood flood-opacity="0" result="BackgroundImageFix"/>
<feColorMatrix in="SourceAlpha" type="matrix" values="0 0 0 0 0 0 0 0 0 0 0 0 0 0 0 0 0 0 127 0" result="hardAlpha"/>
<feOffset dy="4"/>
<feGaussianBlur stdDeviation="2"/>
<feColorMatrix type="matrix" values="0 0 0 0 0 0 0 0 0 0 0 0 0 0 0 0 0 0 0.3 0"/>
<feBlend mode="normal" in2="BackgroundImageFix" result="effect1_dropShadow_479_139"/>
<feColorMatrix in="SourceAlpha" type="matrix" values="0 0 0 0 0 0 0 0 0 0 0 0 0 0 0 0 0 0 127 0" result="hardAlpha"/>
<feMorphology radius="6" operator="dilate" in="SourceAlpha" result="effect2_dropShadow_479_139"/>
<feOffset dy="8"/>
<feGaussianBlur stdDeviation="6"/>
<feColorMatrix type="matrix" values="0 0 0 0 0 0 0 0 0 0 0 0 0 0 0 0 0 0 0.15 0"/>
<feBlend mode="normal" in2="effect1_dropShadow_479_139" result="effect2_dropShadow_479_139"/>
<feBlend mode="normal" in="SourceGraphic" in2="effect2_dropShadow_479_139" result="shape"/>
</filter>
<filter id="filter8_dd_479_139" x="1239" y="289.7" width="393" height="126" filterUnits="userSpaceOnUse" color-interpolation-filters="sRGB">
<feFlood flood-opacity="0" result="BackgroundImageFix"/>
<feColorMatrix in="SourceAlpha" type="matrix" values="0 0 0 0 0 0 0 0 0 0 0 0 0 0 0 0 0 0 127 0" result="hardAlpha"/>
<feOffset dy="4"/>
<feGaussianBlur stdDeviation="2"/>
<feColorMatrix type="matrix" values="0 0 0 0 0 0 0 0 0 0 0 0 0 0 0 0 0 0 0.3 0"/>
<feBlend mode="normal" in2="BackgroundImageFix" result="effect1_dropShadow_479_139"/>
<feColorMatrix in="SourceAlpha" type="matrix" values="0 0 0 0 0 0 0 0 0 0 0 0 0 0 0 0 0 0 127 0" result="hardAlpha"/>
<feMorphology radius="6" operator="dilate" in="SourceAlpha" result="effect2_dropShadow_479_139"/>
<feOffset dy="8"/>
<feGaussianBlur stdDeviation="6"/>
<feColorMatrix type="matrix" values="0 0 0 0 0 0 0 0 0 0 0 0 0 0 0 0 0 0 0.15 0"/>
<feBlend mode="normal" in2="effect1_dropShadow_479_139" result="effect2_dropShadow_479_139"/>
<feBlend mode="normal" in="SourceGraphic" in2="effect2_dropShadow_479_139" result="shape"/>
</filter>
<filter id="filter9_dd_479_139" x="788" y="52.0999" width="440" height="156.6" filterUnits="userSpaceOnUse" color-interpolation-filters="sRGB">
<feFlood flood-opacity="0" result="BackgroundImageFix"/>
<feColorMatrix in="SourceAlpha" type="matrix" values="0 0 0 0 0 0 0 0 0 0 0 0 0 0 0 0 0 0 127 0" result="hardAlpha"/>
<feOffset dy="4"/>
<feGaussianBlur stdDeviation="2"/>
<feColorMatrix type="matrix" values="0 0 0 0 0 0 0 0 0 0 0 0 0 0 0 0 0 0 0.3 0"/>
<feBlend mode="normal" in2="BackgroundImageFix" result="effect1_dropShadow_479_139"/>
<feColorMatrix in="SourceAlpha" type="matrix" values="0 0 0 0 0 0 0 0 0 0 0 0 0 0 0 0 0 0 127 0" result="hardAlpha"/>
<feMorphology radius="6" operator="dilate" in="SourceAlpha" result="effect2_dropShadow_479_139"/>
<feOffset dy="8"/>
<feGaussianBlur stdDeviation="6"/>
<feColorMatrix type="matrix" values="0 0 0 0 0 0 0 0 0 0 0 0 0 0 0 0 0 0 0.15 0"/>
<feBlend mode="normal" in2="effect1_dropShadow_479_139" result="effect2_dropShadow_479_139"/>
<feBlend mode="normal" in="SourceGraphic" in2="effect2_dropShadow_479_139" result="shape"/>
</filter>
<filter id="filter10_dd_479_139" x="1315" y="199.2" width="209" height="103.3" filterUnits="userSpaceOnUse" color-interpolation-filters="sRGB">
<feFlood flood-opacity="0" result="BackgroundImageFix"/>
<feColorMatrix in="SourceAlpha" type="matrix" values="0 0 0 0 0 0 0 0 0 0 0 0 0 0 0 0 0 0 127 0" result="hardAlpha"/>
<feMorphology radius="2" operator="dilate" in="SourceAlpha" result="effect1_dropShadow_479_139"/>
<feOffset dy="2"/>
<feGaussianBlur stdDeviation="3"/>
<feColorMatrix type="matrix" values="0 0 0 0 0 0 0 0 0 0 0 0 0 0 0 0 0 0 0.15 0"/>
<feBlend mode="normal" in2="BackgroundImageFix" result="effect1_dropShadow_479_139"/>
<feColorMatrix in="SourceAlpha" type="matrix" values="0 0 0 0 0 0 0 0 0 0 0 0 0 0 0 0 0 0 127 0" result="hardAlpha"/>
<feOffset dy="1"/>
<feGaussianBlur stdDeviation="1"/>
<feColorMatrix type="matrix" values="0 0 0 0 0 0 0 0 0 0 0 0 0 0 0 0 0 0 0.3 0"/>
<feBlend mode="normal" in2="effect1_dropShadow_479_139" result="effect2_dropShadow_479_139"/>
<feBlend mode="normal" in="SourceGraphic" in2="effect2_dropShadow_479_139" result="shape"/>
</filter>
<filter id="filter11_dd_479_139" x="722" y="275" width="209" height="103.591" filterUnits="userSpaceOnUse" color-interpolation-filters="sRGB">
<feFlood flood-opacity="0" result="BackgroundImageFix"/>
<feColorMatrix in="SourceAlpha" type="matrix" values="0 0 0 0 0 0 0 0 0 0 0 0 0 0 0 0 0 0 127 0" result="hardAlpha"/>
<feMorphology radius="2" operator="dilate" in="SourceAlpha" result="effect1_dropShadow_479_139"/>
<feOffset dy="2"/>
<feGaussianBlur stdDeviation="3"/>
<feColorMatrix type="matrix" values="0 0 0 0 0 0 0 0 0 0 0 0 0 0 0 0 0 0 0.15 0"/>
<feBlend mode="normal" in2="BackgroundImageFix" result="effect1_dropShadow_479_139"/>
<feColorMatrix in="SourceAlpha" type="matrix" values="0 0 0 0 0 0 0 0 0 0 0 0 0 0 0 0 0 0 127 0" result="hardAlpha"/>
<feOffset dy="1"/>
<feGaussianBlur stdDeviation="1"/>
<feColorMatrix type="matrix" values="0 0 0 0 0 0 0 0 0 0 0 0 0 0 0 0 0 0 0.3 0"/>
<feBlend mode="normal" in2="effect1_dropShadow_479_139" result="effect2_dropShadow_479_139"/>
<feBlend mode="normal" in="SourceGraphic" in2="effect2_dropShadow_479_139" result="shape"/>
</filter>
<filter id="filter12_dd_479_139" x="798" y="262" width="180" height="122.233" filterUnits="userSpaceOnUse" color-interpolation-filters="sRGB">
<feFlood flood-opacity="0" result="BackgroundImageFix"/>
<feColorMatrix in="SourceAlpha" type="matrix" values="0 0 0 0 0 0 0 0 0 0 0 0 0 0 0 0 0 0 127 0" result="hardAlpha"/>
<feOffset dy="1"/>
<feGaussianBlur stdDeviation="1.5"/>
<feColorMatrix type="matrix" values="0 0 0 0 0 0 0 0 0 0 0 0 0 0 0 0 0 0 0.3 0"/>
<feBlend mode="normal" in2="BackgroundImageFix" result="effect1_dropShadow_479_139"/>
<feColorMatrix in="SourceAlpha" type="matrix" values="0 0 0 0 0 0 0 0 0 0 0 0 0 0 0 0 0 0 127 0" result="hardAlpha"/>
<feMorphology radius="3" operator="dilate" in="SourceAlpha" result="effect2_dropShadow_479_139"/>
<feOffset dy="4"/>
<feGaussianBlur stdDeviation="4"/>
<feColorMatrix type="matrix" values="0 0 0 0 0 0 0 0 0 0 0 0 0 0 0 0 0 0 0.15 0"/>
<feBlend mode="normal" in2="effect1_dropShadow_479_139" result="effect2_dropShadow_479_139"/>
<feBlend mode="normal" in="SourceGraphic" in2="effect2_dropShadow_479_139" result="shape"/>
</filter>
<filter id="filter13_f_479_139" x="731" y="850" width="133" height="38" filterUnits="userSpaceOnUse" color-interpolation-filters="sRGB">
<feFlood flood-opacity="0" result="BackgroundImageFix"/>
<feBlend mode="normal" in="SourceGraphic" in2="BackgroundImageFix" result="shape"/>
<feGaussianBlur stdDeviation="4" result="effect1_foregroundBlur_479_139"/>
</filter>
<linearGradient id="paint0_linear_479_139" x1="799.499" y1="870" x2="808.943" y2="-0.03343" gradientUnits="userSpaceOnUse">
<stop offset="0.0882295" stop-color="#F2EDBD"/>
<stop offset="0.738479" stop-color="#FFB0A4"/>
</linearGradient>
<linearGradient id="paint1_linear_479_139" x1="1135.47" y1="88.1572" x2="1436.19" y2="234.923" gradientUnits="userSpaceOnUse">
<stop offset="0.360272" stop-color="#F49685"/>
<stop offset="0.503188" stop-color="#F49685" stop-opacity="0.71"/>
<stop offset="1" stop-color="#BC0101" stop-opacity="0.58"/>
</linearGradient>
<radialGradient id="paint2_radial_479_139" cx="0" cy="0" r="1" gradientUnits="userSpaceOnUse" gradientTransform="translate(1234.5 105.5) rotate(34.0985) scale(88.76 87.0533)">
<stop stop-color="#D45D4B"/>
<stop offset="0.833359" stop-color="#D45D4B" stop-opacity="0"/>
</radialGradient>
<linearGradient id="paint3_linear_479_139" x1="1022" y1="718.231" x2="1025.41" y2="1016.85" gradientUnits="userSpaceOnUse">
<stop stop-color="#E2BB2E"/>
<stop offset="0.546875" stop-color="#E2BB2E" stop-opacity="0.2"/>
</linearGradient>
<linearGradient id="paint4_linear_479_139" x1="633" y1="716.231" x2="636.408" y2="1014.85" gradientUnits="userSpaceOnUse">
<stop stop-color="#E2BB2E"/>
<stop offset="0.546875" stop-color="#E2BB2E" stop-opacity="0.2"/>
</linearGradient>
<linearGradient id="paint5_linear_479_139" x1="219.01" y1="762.276" x2="219.048" y2="715.176" gradientUnits="userSpaceOnUse">
<stop stop-color="#E2BB2E"/>
<stop offset="1" stop-color="#E2BB2E" stop-opacity="0"/>
</linearGradient>
<linearGradient id="paint6_linear_479_139" x1="540.51" y1="762.535" x2="540.548" y2="715.435" gradientUnits="userSpaceOnUse">
<stop stop-color="#E2BB2E"/>
<stop offset="1" stop-color="#E2BB2E" stop-opacity="0"/>
</linearGradient>
<linearGradient id="paint7_linear_479_139" x1="1168.51" y1="763.041" x2="1168.55" y2="715.941" gradientUnits="userSpaceOnUse">
<stop stop-color="#E2BB2E"/>
<stop offset="1" stop-color="#E2BB2E" stop-opacity="0"/>
</linearGradient>
<linearGradient id="paint8_linear_479_139" x1="1487.51" y1="763.298" x2="1487.55" y2="716.198" gradientUnits="userSpaceOnUse">
<stop stop-color="#E2BB2E"/>
<stop offset="1" stop-color="#E2BB2E" stop-opacity="0"/>
</linearGradient>
<linearGradient id="paint9_linear_479_139" x1="800" y1="0" x2="800" y2="16.2" gradientUnits="userSpaceOnUse">
<stop stop-color="#E2BB2E"/>
<stop offset="1" stop-color="#E2BB2E" stop-opacity="0"/>
</linearGradient>
<linearGradient id="paint10_linear_479_139" x1="181.013" y1="759.546" x2="181.048" y2="715.146" gradientUnits="userSpaceOnUse">
<stop stop-color="#E2BB2E"/>
<stop offset="1" stop-color="#E2BB2E" stop-opacity="0"/>
</linearGradient>
<linearGradient id="paint11_linear_479_139" x1="502.512" y1="759.805" x2="502.548" y2="715.405" gradientUnits="userSpaceOnUse">
<stop stop-color="#E2BB2E"/>
<stop offset="1" stop-color="#E2BB2E" stop-opacity="0"/>
</linearGradient>
<linearGradient id="paint12_linear_479_139" x1="1130.51" y1="760.311" x2="1130.55" y2="715.911" gradientUnits="userSpaceOnUse">
<stop stop-color="#E2BB2E"/>
<stop offset="1" stop-color="#E2BB2E" stop-opacity="0"/>
</linearGradient>
<linearGradient id="paint13_linear_479_139" x1="1449.51" y1="760.568" x2="1449.55" y2="716.168" gradientUnits="userSpaceOnUse">
<stop stop-color="#E2BB2E"/>
<stop offset="1" stop-color="#E2BB2E" stop-opacity="0"/>
</linearGradient>
<linearGradient id="paint14_linear_479_139" x1="896" y1="423" x2="1115.5" y2="443.5" gradientUnits="userSpaceOnUse">
<stop offset="0.0592727" stop-color="#E47F70"/>
<stop offset="0.418022" stop-color="#FAC6BE"/>
<stop offset="0.616722" stop-color="#E47F70"/>
</linearGradient>
<linearGradient id="paint15_linear_479_139" x1="972.5" y1="259" x2="1065.5" y2="257.5" gradientUnits="userSpaceOnUse">
<stop offset="0.194341" stop-color="#E47F70"/>
<stop offset="0.472773" stop-color="#FAC6BE"/>
<stop offset="0.757765" stop-color="#E47F70"/>
</linearGradient>
<linearGradient id="paint16_linear_479_139" x1="508" y1="423" x2="727.5" y2="443.5" gradientUnits="userSpaceOnUse">
<stop offset="0.0592727" stop-color="#E47F70"/>
<stop offset="0.418022" stop-color="#FAC6BE"/>
<stop offset="0.616722" stop-color="#E47F70"/>
</linearGradient>
<linearGradient id="paint17_linear_479_139" x1="584.5" y1="259" x2="677.5" y2="257.5" gradientUnits="userSpaceOnUse">
<stop offset="0.194341" stop-color="#E47F70"/>
<stop offset="0.472773" stop-color="#FAC6BE"/>
<stop offset="0.757765" stop-color="#E47F70"/>
</linearGradient>
<linearGradient id="paint18_linear_479_139" x1="800" y1="862" x2="800" y2="905" gradientUnits="userSpaceOnUse">
<stop stop-color="#9E9E9E"/>
<stop offset="0.404118" stop-color="#A0A0A0"/>
<stop offset="1" stop-color="#6C6C6C" stop-opacity="0.87"/>
</linearGradient>
<clipPath id="clip0_479_139">
<rect width="1600" height="900" fill="white"/>
</clipPath>
<clipPath id="clip1_479_139">
<rect width="158" height="99.9" fill="white" transform="matrix(-1 0 0 1 519 192.6)"/>
</clipPath>
<clipPath id="clip2_479_139">
<rect width="158" height="99.9" fill="white" transform="matrix(-1 0 0 1 701 61.7939)"/>
</clipPath>
<clipPath id="clip3_479_139">
<rect width="158" height="100.233" fill="white" transform="translate(809 269)"/>
</clipPath>
</defs>
</svg>
