<svg width="24" height="24" viewBox="0 0 24 24" fill="none" xmlns="http://www.w3.org/2000/svg">
<path d="M10.2632 21V15.5H13.7368V21H10.2632Z" fill="#2D0D06"/>
<path d="M4.47368 21L4.47368 12.627H6.78947L6.78947 21H4.47368Z" fill="#2D0D06"/>
<path d="M17.2105 21V12.627H19.5263V21H17.2105Z" fill="#2D0D06"/>
<path d="M19.5263 9.28377V12.627L22.9642 12.627C22.984 12.627 23 12.6116 23 12.5925C23 10.7652 21.4608 9.28377 19.5621 9.28377H19.5263Z" fill="#2D0D06"/>
<path d="M4.47368 9.28377L4.47368 12.627L1.11389 12.627C1.05099 12.627 1 12.5779 1 12.5174C1 10.7315 2.50423 9.28377 4.35979 9.28377H4.47368Z" fill="#2D0D06"/>
<path d="M11.2143 3.29582C11.6579 2.90139 12.3421 2.90139 12.7857 3.29582L19.5207 9.28377H4.47925L11.2143 3.29582Z" fill="#2D0D06"/>
<path d="M4.47368 9.28377H19.5263V12.627H4.47368L4.47368 9.28377Z" fill="#2D0D06"/>
</svg>
