<svg width="32" height="32" viewBox="0 0 32 32" fill="none" xmlns="http://www.w3.org/2000/svg">
<g clip-path="url(#clip0_536_272)">
<path fill-rule="evenodd" clip-rule="evenodd" d="M16 0C13.1477 0 10.8844 2.09417 10.8844 4.62366C10.8844 6.90679 12.7283 8.83528 15.1849 9.18925L15.1621 9.19946L9.00331 11.9982C8.80058 12.0903 8.64117 12.2178 8.52508 12.3656H4.2449C3.67687 12.3656 3.26531 12.7767 3.26531 13.2301L3.26531 17.8065H1.85034C0.801412 17.8065 0 18.5719 0 19.4624V20.4516C0 21.3421 0.801411 22.1075 1.85034 22.1075H3.26531V27.1785C3.26531 27.6319 3.67686 28.043 4.2449 28.043H8.7667L7.83207 28.8925L8.92983 29.8172L10.9306 27.9988C11.2657 30.2404 13.3854 32 16 32C18.6146 32 20.7343 30.2404 21.0694 27.9988L23.0702 29.8172L24.1679 28.8925L23.2333 28.043H27.7551C28.3231 28.043 28.7347 27.6319 28.7347 27.1785V22.1075H30.1497C31.1986 22.1075 32 21.3421 32 20.4516V19.4624C32 18.5719 31.1986 17.8065 30.1497 17.8065H28.7347V13.2301C28.7347 12.7767 28.3231 12.3656 27.7551 12.3656H23.4749C23.3588 12.2178 23.1994 12.0903 22.9967 11.9982L16.8379 9.19946L16.8151 9.18925C19.2717 8.83528 21.1156 6.90679 21.1156 4.62366C21.1156 2.09417 18.8523 0 16 0ZM12.4082 4.62366C12.4082 2.78237 14.0433 1.33333 16 1.33333C17.9567 1.33333 19.5918 2.78237 19.5918 4.62366C19.5918 6.46494 17.9567 7.91398 16 7.91398C14.0433 7.91398 12.4082 6.46494 12.4082 4.62366ZM4.78912 13.6989H8.52508C8.64117 13.8467 8.80058 13.9742 9.00331 14.0663L13.9683 16.3226H12.7347C11.6858 16.3226 10.8844 17.0881 10.8844 17.9785V18.9677C10.8844 19.8582 11.6858 20.6237 12.7347 20.6237H15.2381V22.8033C12.9826 23.1064 11.2325 24.7346 10.9306 26.7539L8.92983 24.9355L7.83207 25.8602L8.7667 26.7097H4.78912V22.1075H6.20408C7.25301 22.1075 8.05442 21.3421 8.05442 20.4516V19.4624C8.05442 18.5719 7.25301 17.8065 6.20408 17.8065H4.78912L4.78912 13.6989ZM22.9967 14.0663L18.0317 16.3226H19.2653C20.3142 16.3226 21.1156 17.088 21.1156 17.9785V18.9677C21.1156 19.8582 20.3142 20.6237 19.2653 20.6237H16.7619V22.8033C19.0174 23.1064 20.7675 24.7346 21.0694 26.7539L23.0702 24.9355L24.1679 25.8602L23.2333 26.7097H27.2109V22.1075H25.7959C24.747 22.1075 23.9456 21.3421 23.9456 20.4516V19.4624C23.9456 18.5719 24.747 17.8065 25.7959 17.8065H27.2109V13.6989H23.4749C23.3588 13.8467 23.1994 13.9742 22.9967 14.0663ZM16.1356 10.3827L21.966 13.0323L16.1356 15.6818C16.0493 15.721 15.9507 15.721 15.8644 15.6818L10.034 13.0323L15.8644 10.3827C15.9507 10.3435 16.0493 10.3435 16.1356 10.3827ZM12.4082 17.9785C12.4082 17.7762 12.5814 17.6559 12.7347 17.6559H19.2653C19.4186 17.6559 19.5918 17.7762 19.5918 17.9785V18.9677C19.5918 19.17 19.4186 19.2903 19.2653 19.2903H12.7347C12.5814 19.2903 12.4082 19.17 12.4082 18.9677V17.9785ZM1.52381 19.4624C1.52381 19.2601 1.69702 19.1398 1.85034 19.1398H6.20408C6.35741 19.1398 6.53061 19.2601 6.53061 19.4624V20.4516C6.53061 20.6539 6.3574 20.7742 6.20408 20.7742H1.85034C1.69702 20.7742 1.52381 20.6539 1.52381 20.4516V19.4624ZM25.4694 19.4624C25.4694 19.2601 25.6426 19.1398 25.7959 19.1398H30.1497C30.303 19.1398 30.4762 19.2601 30.4762 19.4624V20.4516C30.4762 20.6539 30.303 20.7742 30.1497 20.7742H25.7959C25.6426 20.7742 25.4694 20.6539 25.4694 20.4516V19.4624ZM12.4082 27.3763C12.4082 25.5351 14.0433 24.086 16 24.086C17.9567 24.086 19.5918 25.5351 19.5918 27.3763C19.5918 29.2176 17.9567 30.6667 16 30.6667C14.0433 30.6667 12.4082 29.2176 12.4082 27.3763Z" fill="#2D0D06" fill-opacity="0.5"/>
</g>
<defs>
<clipPath id="clip0_536_272">
<rect width="32" height="32" fill="white"/>
</clipPath>
</defs>
</svg>
