<svg width="32" height="32" viewBox="0 0 32 32" fill="none" xmlns="http://www.w3.org/2000/svg">
<path d="M3.2 30C2.32 30 1.56667 29.6573 0.94 28.9719C0.313333 28.2865 0 27.4625 0 26.5V5.5C0 4.5375 0.313333 3.71354 0.94 3.02813C1.56667 2.34271 2.32 2 3.2 2H28.8C29.68 2 30.4333 2.34271 31.06 3.02813C31.6867 3.71354 32 4.5375 32 5.5V26.5C32 27.4625 31.6867 28.2865 31.06 28.9719C30.4333 29.6573 29.68 30 28.8 30H3.2ZM3.2 26.5H20V20.375H3.2V26.5ZM23.2 26.5H28.8V10.75H23.2V26.5ZM3.2 16.875H20V10.75H3.2V16.875Z" fill="#95807C"/>
</svg>
