<svg width="24" height="24" viewBox="0 0 24 24" fill="none" xmlns="http://www.w3.org/2000/svg">
<path fill-rule="evenodd" clip-rule="evenodd" d="M23 1H1V23H23V1ZM14.6434 13.205C14.6534 13.115 14.6584 13.035 14.6584 12.965C14.6684 12.845 14.6684 12.725 14.6584 12.605C14.6484 12.485 14.6384 12.36 14.6284 12.23V12.2C14.5884 12.11 14.5584 12.02 14.5384 11.93C14.5284 11.83 14.5084 11.735 14.4784 11.645C14.5084 11.545 14.5284 11.46 14.5384 11.39C14.4984 11.29 14.4734 11.19 14.4634 11.09C14.4634 10.99 14.4584 10.885 14.4484 10.775C14.4484 10.745 14.4434 10.715 14.4334 10.685C14.4334 10.655 14.4284 10.625 14.4184 10.595C14.3784 10.575 14.3384 10.545 14.2984 10.505C14.2284 10.495 14.1634 10.495 14.1034 10.505C14.0634 10.505 14.0234 10.515 13.9834 10.535C13.9534 10.545 13.9134 10.555 13.8634 10.565C13.7934 10.525 13.7184 10.495 13.6384 10.475C13.5584 10.445 13.4834 10.415 13.4134 10.385L13.2334 10.445C13.1834 10.455 13.1334 10.47 13.0834 10.49C13.0034 10.55 12.9134 10.59 12.8134 10.61C12.7234 10.63 12.6284 10.65 12.5284 10.67C12.5184 10.67 12.4984 10.675 12.4684 10.685L12.4084 10.715C12.3884 10.775 12.3634 10.835 12.3334 10.895C12.3134 10.955 12.2834 11.01 12.2434 11.06C12.2034 11.11 12.1634 11.165 12.1234 11.225C12.0934 11.275 12.0534 11.325 12.0034 11.375C12.0134 11.425 12.0184 11.48 12.0184 11.54C12.0184 11.6 12.0234 11.655 12.0334 11.705C12.0634 11.795 12.0784 11.89 12.0784 11.99C12.0884 12.09 12.0834 12.19 12.0634 12.29C12.0534 12.37 12.0534 12.455 12.0634 12.545C12.0734 12.635 12.0634 12.72 12.0334 12.8C12.0634 12.87 12.0684 12.94 12.0484 13.01C12.0384 13.07 12.0334 13.115 12.0334 13.145C12.0434 13.235 12.0684 13.29 12.1084 13.31C12.1484 13.33 12.1734 13.365 12.1834 13.415C12.1534 13.435 12.1234 13.46 12.0934 13.49L12.0184 13.565C11.9984 13.685 12.0034 13.785 12.0334 13.865C12.0634 13.915 12.0684 13.97 12.0484 14.03C12.0284 14.08 12.0234 14.13 12.0334 14.18L12.1534 14.375L12.1834 14.735C12.1934 14.845 12.1834 14.955 12.1534 15.065C12.1234 15.165 12.1034 15.275 12.0934 15.395C12.0834 15.505 12.0834 15.615 12.0934 15.725V15.8C12.0934 15.83 12.0834 15.855 12.0634 15.875C12.0234 15.975 12.0034 16.085 12.0034 16.205C12.0034 16.315 11.9934 16.425 11.9734 16.535C11.9734 16.575 11.9634 16.61 11.9434 16.64C11.9234 16.66 11.9034 16.69 11.8834 16.73C11.8634 16.76 11.8384 16.79 11.8084 16.82C11.7984 16.86 11.7884 16.905 11.7784 16.955V17.105C11.7484 17.135 11.7234 17.165 11.7034 17.195C11.6834 17.225 11.6634 17.25 11.6434 17.27C11.6334 17.31 11.6284 17.35 11.6284 17.39C11.6284 17.43 11.6184 17.46 11.5984 17.48C11.5484 17.54 11.5134 17.6 11.4934 17.66C11.4534 17.81 11.3334 17.915 11.1334 17.975C11.0834 17.985 11.0234 17.995 10.9534 18.005C10.8934 18.005 10.8284 18.01 10.7584 18.02C10.6484 18.08 10.5634 18.15 10.5034 18.23C10.4734 18.21 10.4484 18.205 10.4284 18.215C10.4184 18.215 10.4084 18.205 10.3984 18.185C10.3184 18.115 10.2434 18.045 10.1734 17.975C10.1034 17.895 10.0334 17.82 9.96338 17.75C9.94338 17.67 9.91838 17.595 9.88838 17.525C9.85838 17.455 9.81838 17.385 9.76838 17.315C9.72838 17.235 9.69338 17.16 9.66338 17.09C9.64338 17.01 9.62338 16.935 9.60338 16.865C9.56338 16.775 9.53838 16.69 9.52838 16.61C9.51838 16.52 9.50338 16.43 9.48338 16.34C9.44338 16.3 9.40838 16.28 9.37838 16.28C9.27838 16.29 9.17338 16.29 9.06338 16.28C8.96338 16.27 8.86338 16.29 8.76338 16.34C8.71338 16.37 8.65838 16.395 8.59838 16.415C8.54838 16.425 8.49838 16.44 8.44838 16.46C8.34838 16.51 8.24338 16.555 8.13338 16.595C8.02338 16.635 7.91338 16.66 7.80338 16.67C7.79338 16.67 7.77338 16.68 7.74338 16.7C7.72338 16.72 7.69838 16.735 7.66838 16.745L7.56338 17.105C7.57338 17.125 7.57838 17.15 7.57838 17.18C7.58838 17.2 7.60338 17.22 7.62338 17.24C7.64338 17.28 7.66838 17.315 7.69838 17.345C7.72838 17.365 7.74838 17.395 7.75838 17.435C7.79838 17.495 7.78838 17.545 7.72838 17.585C7.72838 17.625 7.72338 17.66 7.71338 17.69L7.68338 17.75L7.74338 17.87C7.77338 17.91 7.78338 17.955 7.77338 18.005C7.75338 18.075 7.76838 18.15 7.81838 18.23C7.87838 18.29 7.92338 18.375 7.95338 18.485C7.97338 18.555 7.99338 18.62 8.01338 18.68C8.04338 18.74 8.06838 18.805 8.08838 18.875C8.10838 19.005 8.14338 19.125 8.19338 19.235C8.24338 19.335 8.30338 19.435 8.37338 19.535C8.44338 19.605 8.51838 19.665 8.59838 19.715C8.68838 19.765 8.76338 19.83 8.82338 19.91C8.83338 19.93 8.84838 19.945 8.86838 19.955C8.89838 19.965 8.91838 19.98 8.92838 20C9.05838 20.07 9.18338 20.14 9.30338 20.21C9.43338 20.29 9.53838 20.385 9.61838 20.495L9.73838 20.615C9.78838 20.655 9.83338 20.69 9.87338 20.72H10.0834C10.1434 20.73 10.2034 20.735 10.2634 20.735C10.3334 20.715 10.3934 20.69 10.4434 20.66C10.5034 20.63 10.5684 20.625 10.6384 20.645C10.6784 20.675 10.7134 20.705 10.7434 20.735C10.7734 20.765 10.8084 20.79 10.8484 20.81C10.9384 20.77 11.0234 20.735 11.1034 20.705C11.1934 20.675 11.2734 20.645 11.3434 20.615C11.4234 20.625 11.4984 20.635 11.5684 20.645L11.7784 20.675C11.8884 20.625 11.9884 20.58 12.0784 20.54L12.3484 20.42C12.3984 20.37 12.4434 20.315 12.4834 20.255C12.5334 20.195 12.5984 20.15 12.6784 20.12C12.7484 20.01 12.8184 19.895 12.8884 19.775C12.9584 19.655 13.0284 19.54 13.0984 19.43C13.1784 19.34 13.2434 19.25 13.2934 19.16C13.3334 19.11 13.3634 19.06 13.3834 19.01C13.4034 18.95 13.4334 18.9 13.4734 18.86C13.4934 18.81 13.5234 18.765 13.5634 18.725C13.6034 18.685 13.6384 18.645 13.6684 18.605C13.6784 18.555 13.6834 18.51 13.6834 18.47C13.6934 18.43 13.7084 18.395 13.7284 18.365C13.7784 18.205 13.8234 18.05 13.8634 17.9L14.0134 17.45C14.0234 17.41 14.0334 17.38 14.0434 17.36C14.0634 17.33 14.0734 17.295 14.0734 17.255C14.0734 17.185 14.0834 17.12 14.1034 17.06L14.1634 16.85C14.1834 16.77 14.1984 16.695 14.2084 16.625C14.2184 16.555 14.2284 16.48 14.2384 16.4C14.2384 16.36 14.2284 16.32 14.2084 16.28C14.1984 16.23 14.2034 16.17 14.2234 16.1C14.2634 16.05 14.2984 16 14.3284 15.95C14.3684 15.9 14.4034 15.855 14.4334 15.815C14.4434 15.715 14.4484 15.63 14.4484 15.56C14.4484 15.48 14.4534 15.405 14.4634 15.335V14.93C14.4734 14.79 14.4784 14.65 14.4784 14.51C14.4784 14.43 14.4834 14.355 14.4934 14.285C14.5034 14.205 14.5084 14.125 14.5084 14.045C14.5084 13.995 14.5184 13.94 14.5384 13.88C14.5684 13.82 14.5884 13.765 14.5984 13.715C14.6284 13.635 14.6434 13.545 14.6434 13.445V13.205ZM21.2394 12.785C21.3394 12.695 21.4194 12.585 21.4794 12.455C21.4094 12.315 21.3344 12.175 21.2544 12.035C21.1844 11.885 21.1094 11.735 21.0294 11.585C20.9994 11.545 20.9644 11.51 20.9244 11.48C20.8844 11.45 20.8444 11.415 20.8044 11.375C20.7644 11.325 20.7244 11.28 20.6844 11.24C20.6544 11.19 20.6194 11.145 20.5794 11.105C20.4494 11.065 20.3294 11.015 20.2194 10.955C20.1094 10.885 19.9994 10.81 19.8894 10.73C19.7894 10.71 19.6844 10.685 19.5744 10.655C19.4744 10.625 19.3694 10.61 19.2594 10.61C19.1394 10.6 19.0194 10.615 18.8994 10.655C18.7894 10.695 18.6794 10.695 18.5694 10.655C18.5494 10.645 18.5294 10.645 18.5094 10.655H18.4794C18.3794 10.665 18.2744 10.675 18.1644 10.685C18.0644 10.695 17.9644 10.71 17.8644 10.73C17.8044 10.76 17.7444 10.785 17.6844 10.805C17.6244 10.825 17.5694 10.85 17.5194 10.88C17.4794 10.89 17.4444 10.905 17.4144 10.925C17.3844 10.935 17.3594 10.955 17.3394 10.985C17.2694 11.055 17.1944 11.11 17.1144 11.15C17.0344 11.18 16.9594 11.22 16.8894 11.27C16.8294 11.34 16.7744 11.405 16.7244 11.465C16.6744 11.525 16.6294 11.585 16.5894 11.645C16.5794 11.685 16.5794 11.73 16.5894 11.78C16.5994 11.82 16.5794 11.865 16.5294 11.915L16.4544 11.99C16.4244 12.02 16.3844 12.05 16.3344 12.08C16.3244 12.11 16.3094 12.14 16.2894 12.17C16.2794 12.2 16.2644 12.235 16.2444 12.275C16.1444 12.435 16.0944 12.61 16.0944 12.8C16.1044 12.87 16.0944 12.925 16.0644 12.965C16.0344 13.005 16.0094 13.055 15.9894 13.115L15.9294 13.235C15.9094 13.275 15.8794 13.305 15.8394 13.325L15.8994 13.475C15.8894 13.595 15.8744 13.715 15.8544 13.835C15.8444 13.945 15.8294 14.055 15.8094 14.165C15.8394 14.325 15.8694 14.475 15.8994 14.615L15.9894 14.825C16.0194 14.885 16.0544 14.94 16.0944 14.99C16.1444 15.06 16.1844 15.135 16.2144 15.215C16.2544 15.285 16.2944 15.345 16.3344 15.395C16.3844 15.445 16.4294 15.5 16.4694 15.56L16.6194 15.74C16.7294 15.78 16.8644 15.845 17.0244 15.935C17.0744 16.005 17.1394 16.045 17.2194 16.055C17.2994 16.065 17.3744 16.08 17.4444 16.1C17.4944 16.14 17.5394 16.185 17.5794 16.235C17.6194 16.275 17.6744 16.305 17.7444 16.325C17.9144 16.325 18.0844 16.36 18.2544 16.43C18.4344 16.5 18.6094 16.545 18.7794 16.565L18.9294 16.685C18.9794 16.725 19.0244 16.76 19.0644 16.79C19.1344 16.88 19.1794 16.97 19.1994 17.06C19.2294 17.15 19.2544 17.235 19.2744 17.315C19.2644 17.425 19.2394 17.525 19.1994 17.615C19.1594 17.705 19.1194 17.8 19.0794 17.9C19.0694 17.92 19.0544 17.94 19.0344 17.96C19.0244 17.97 19.0144 17.985 19.0044 18.005H18.7344C18.7244 18.015 18.7094 18.025 18.6894 18.035C18.6694 18.045 18.6444 18.055 18.6144 18.065L18.5694 18.11C18.5494 18.12 18.5194 18.13 18.4794 18.14C18.2894 18.09 18.1044 18.035 17.9244 17.975C17.7444 17.915 17.5544 17.86 17.3544 17.81C17.2944 17.85 17.2394 17.89 17.1894 17.93C17.1394 17.96 17.0944 17.99 17.0544 18.02L16.7544 18.41C16.6544 18.53 16.5594 18.65 16.4694 18.77C16.4394 18.86 16.4244 18.935 16.4244 18.995C16.3844 19.075 16.3344 19.15 16.2744 19.22C16.2244 19.29 16.1944 19.365 16.1844 19.445C16.1944 19.505 16.2344 19.56 16.3044 19.61L16.4544 19.67C16.5144 19.68 16.5644 19.705 16.6044 19.745C16.6544 19.785 16.7094 19.825 16.7694 19.865C16.8294 19.905 16.8894 19.95 16.9494 20C17.0394 20.09 17.1394 20.16 17.2494 20.21C17.3594 20.27 17.4744 20.325 17.5944 20.375C17.6744 20.415 17.7694 20.435 17.8794 20.435C18.0394 20.435 18.1844 20.485 18.3144 20.585L18.7944 20.465C18.8844 20.445 18.9644 20.415 19.0344 20.375C19.1444 20.325 19.2494 20.29 19.3494 20.27C19.4594 20.25 19.5644 20.235 19.6644 20.225L19.9794 20.075C20.0294 20.035 20.0844 20 20.1444 19.97C20.2044 19.94 20.2544 19.905 20.2944 19.865C20.3744 19.785 20.4444 19.705 20.5044 19.625C20.5744 19.545 20.6594 19.47 20.7594 19.4C20.7794 19.39 20.7894 19.38 20.7894 19.37C20.7894 19.35 20.7944 19.335 20.8044 19.325C20.8744 19.215 20.9344 19.105 20.9844 18.995C21.0444 18.885 21.1194 18.785 21.2094 18.695C21.2294 18.675 21.2394 18.66 21.2394 18.65C21.2394 18.64 21.2444 18.63 21.2544 18.62C21.2944 18.54 21.3244 18.455 21.3444 18.365C21.3744 18.265 21.3894 18.165 21.3894 18.065C21.4094 17.945 21.4144 17.825 21.4044 17.705C21.4044 17.575 21.3894 17.445 21.3594 17.315L21.2094 16.985C21.1694 16.875 21.1394 16.76 21.1194 16.64C21.1194 16.61 21.1144 16.59 21.1044 16.58L21.0144 16.34C20.9944 16.26 20.9494 16.19 20.8794 16.13C20.8294 16.05 20.7744 15.965 20.7144 15.875C20.6644 15.785 20.6144 15.7 20.5644 15.62C20.4744 15.43 20.3444 15.28 20.1744 15.17L20.0844 15.11C20.0544 15.09 20.0244 15.075 19.9944 15.065C19.9544 15.015 19.9094 14.975 19.8594 14.945L19.7244 14.81C19.6744 14.76 19.6144 14.725 19.5444 14.705C19.4844 14.675 19.4244 14.64 19.3644 14.6C19.2744 14.52 19.1794 14.45 19.0794 14.39C18.9794 14.32 18.8844 14.25 18.7944 14.18C18.7544 14.11 18.7094 14.045 18.6594 13.985C18.6194 13.915 18.5744 13.85 18.5244 13.79L18.4944 13.55C18.4944 13.47 18.4894 13.39 18.4794 13.31C18.5194 13.26 18.5544 13.205 18.5844 13.145L18.7044 12.965L18.8844 12.905C18.9444 12.885 19.0044 12.87 19.0644 12.86C19.2444 12.79 19.4344 12.795 19.6344 12.875C19.6544 12.875 19.6694 12.885 19.6794 12.905L19.7244 12.95V13.1C19.7444 13.12 19.7594 13.125 19.7694 13.115C19.8994 13.095 20.0044 13.12 20.0844 13.19C20.1244 13.21 20.1544 13.235 20.1744 13.265C20.2044 13.285 20.2394 13.305 20.2794 13.325C20.3594 13.385 20.4494 13.385 20.5494 13.325C20.6094 13.275 20.6744 13.225 20.7444 13.175C20.8244 13.125 20.9044 13.09 20.9844 13.07C21.0544 12.96 21.1394 12.865 21.2394 12.785Z" fill="#2D0D06"/>
</svg>
