<svg width="57" height="26" viewBox="0 0 57 26" fill="none" xmlns="http://www.w3.org/2000/svg">
<g filter="url(#filter0_d_250_17)">
<path fill-rule="evenodd" clip-rule="evenodd" d="M45.5 12H44.2667H43.4667H36.3158C35.0368 12 34 10.9632 34 9.68421C34 8.75405 34.754 8 35.6842 8H37V7C37 5.34315 38.3431 4 40 4H40.5997C41.5101 2.21916 43.3627 1 45.5 1C48.5376 1 51 3.46243 51 6.5C51 7.02001 50.9278 7.52317 50.793 8H51.3158C52.246 8 53 8.75405 53 9.68421C53 10.9632 51.9632 12 50.6842 12H45.5Z" fill="#FFFDFC"/>
</g>
<g filter="url(#filter1_d_250_17)">
<path fill-rule="evenodd" clip-rule="evenodd" d="M19.3024 3.52614C18.3147 2.58077 16.9752 2 15.5 2C13.3627 2 11.5101 3.21916 10.5997 5H10C8.34315 5 7 6.34315 7 8V9H5.68421C4.75405 9 4 9.75405 4 10.6842C4 11.9632 5.03681 13 6.31579 13H8.13791C8.32183 13.3256 8.67113 13.5455 9.07177 13.5455H11.0342C11.2533 14.9866 12.4977 16.0909 14 16.0909H14.5997C15.5101 17.2242 17.3627 18 19.5 18C22.0743 18 24.2355 16.8746 24.8348 15.3547C25.807 16.3428 27.5329 17 29.5 17C31.6373 17 33.4899 16.2242 34.4003 15.0909H35C36.3399 15.0909 37.4747 14.2124 37.8598 13H41.6842C42.9632 13 44 11.9632 44 10.6842C44 9.75405 43.246 9 42.3158 9H41.793C41.9278 8.52317 42 8.02001 42 7.5C42 4.46243 39.5376 2 36.5 2C34.5793 2 32.8886 2.98451 31.9049 4.47642C31.4253 1.92798 29.1878 0 26.5 0C24.3627 0 22.5101 1.21916 21.5997 3H21C20.3699 3 19.7852 3.19425 19.3024 3.52614Z" fill="#FFFDFC"/>
</g>
<defs>
<filter id="filter0_d_250_17" x="30" y="1" width="27" height="19" filterUnits="userSpaceOnUse" color-interpolation-filters="sRGB">
<feFlood flood-opacity="0" result="BackgroundImageFix"/>
<feColorMatrix in="SourceAlpha" type="matrix" values="0 0 0 0 0 0 0 0 0 0 0 0 0 0 0 0 0 0 127 0" result="hardAlpha"/>
<feOffset dy="4"/>
<feGaussianBlur stdDeviation="2"/>
<feComposite in2="hardAlpha" operator="out"/>
<feColorMatrix type="matrix" values="0 0 0 0 0 0 0 0 0 0 0 0 0 0 0 0 0 0 0.25 0"/>
<feBlend mode="normal" in2="BackgroundImageFix" result="effect1_dropShadow_250_17"/>
<feBlend mode="normal" in="SourceGraphic" in2="effect1_dropShadow_250_17" result="shape"/>
</filter>
<filter id="filter1_d_250_17" x="0" y="0" width="48" height="26" filterUnits="userSpaceOnUse" color-interpolation-filters="sRGB">
<feFlood flood-opacity="0" result="BackgroundImageFix"/>
<feColorMatrix in="SourceAlpha" type="matrix" values="0 0 0 0 0 0 0 0 0 0 0 0 0 0 0 0 0 0 127 0" result="hardAlpha"/>
<feOffset dy="4"/>
<feGaussianBlur stdDeviation="2"/>
<feComposite in2="hardAlpha" operator="out"/>
<feColorMatrix type="matrix" values="0 0 0 0 0 0 0 0 0 0 0 0 0 0 0 0 0 0 0.25 0"/>
<feBlend mode="normal" in2="BackgroundImageFix" result="effect1_dropShadow_250_17"/>
<feBlend mode="normal" in="SourceGraphic" in2="effect1_dropShadow_250_17" result="shape"/>
</filter>
</defs>
</svg>
