<svg width="75" height="32" viewBox="0 0 75 32" fill="none" xmlns="http://www.w3.org/2000/svg">
<g filter="url(#filter0_d_250_18)">
<path fill-rule="evenodd" clip-rule="evenodd" d="M46.3024 9.52614C45.3147 8.58077 43.9752 8 42.5 8C40.3627 8 38.5101 9.21916 37.5997 11H37C35.3431 11 34 12.3431 34 14V15H32.6842C31.754 15 31 15.754 31 16.6842C31 17.9632 32.0368 19 33.3158 19H35.1379C35.3218 19.3256 35.6711 19.5455 36.0718 19.5455H38.0342C38.2533 20.9866 39.4977 22.0909 41 22.0909H41.5997C42.5101 23.2242 44.3627 24 46.5 24C49.0743 24 51.2355 22.8746 51.8348 21.3547C52.807 22.3428 54.5329 23 56.5 23C58.6373 23 60.4899 22.2242 61.4003 21.0909H62C63.3399 21.0909 64.4747 20.2124 64.8598 19H68.6842C69.9632 19 71 17.9632 71 16.6842C71 15.754 70.246 15 69.3158 15H68.793C68.9278 14.5232 69 14.02 69 13.5C69 10.4624 66.5376 8 63.5 8C61.5793 8 59.8886 8.98451 58.9049 10.4764C58.4253 7.92798 56.1878 6 53.5 6C51.3627 6 49.5101 7.21916 48.5997 9H48C47.3699 9 46.7852 9.19425 46.3024 9.52614Z" fill="#FFFDFC"/>
</g>
<g filter="url(#filter1_d_250_18)">
<path fill-rule="evenodd" clip-rule="evenodd" d="M19.3024 5.52614C18.3147 4.58077 16.9752 4 15.5 4C13.3627 4 11.5101 5.21916 10.5997 7H10C8.34315 7 7 8.34315 7 10V11H5.68421C4.75405 11 4 11.754 4 12.6842C4 13.9632 5.03681 15 6.31579 15H8.13791C8.32183 15.3256 8.67113 15.5455 9.07177 15.5455H11.0342C11.2533 16.9866 12.4977 18.0909 14 18.0909H14.5997C15.5101 19.2242 17.3627 20 19.5 20C22.0743 20 24.2355 18.8746 24.8348 17.3547C25.807 18.3428 27.5329 19 29.5 19C31.6373 19 33.4899 18.2242 34.4003 17.0909H35C36.3399 17.0909 37.4747 16.2124 37.8598 15H41.6842C42.9632 15 44 13.9632 44 12.6842C44 11.754 43.246 11 42.3158 11H41.793C41.9278 10.5232 42 10.02 42 9.5C42 6.46243 39.5376 4 36.5 4C34.5793 4 32.8886 4.98451 31.9049 6.47642C31.4253 3.92798 29.1878 2 26.5 2C24.3627 2 22.5101 3.21916 21.5997 5H21C20.3699 5 19.7852 5.19425 19.3024 5.52614Z" fill="#FFFDFC"/>
</g>
<path fill-rule="evenodd" clip-rule="evenodd" d="M47.5 17.9444C45.5329 17.9444 43.807 17.2508 42.8348 16.2077C42.2355 17.812 40.0743 19 37.5 19C35.3627 19 33.5101 18.1811 32.5997 16.9849H32C30.4489 16.9849 29.1727 15.8077 29.0161 14.298H27.1313C26.7084 14.298 26.3397 14.0659 26.1456 13.7222H24.4444C23.0944 13.7222 22 12.6278 22 11.2778C22 10.2959 22.7959 9.5 23.7778 9.5H25V8.27778C25 6.62092 26.3431 5.27777 28 5.27777H28.5997C29.5101 3.398 31.3627 2.11111 33.5 2.11111C34.9666 2.11111 36.2992 2.71706 37.2852 3.70473C37.7712 3.36558 38.3624 3.16667 39 3.16667H39.5997C40.5101 1.28689 42.3627 0 44.5 0C47.1878 0 49.4253 2.03509 49.9049 4.72511C50.8886 3.15032 52.5793 2.11111 54.5 2.11111C57.5376 2.11111 60 4.71035 60 7.91667C60 8.46557 59.9278 8.99668 59.793 9.5H60.2222C61.2041 9.5 62 10.2959 62 11.2778C62 12.6278 60.9056 13.7222 59.5556 13.7222H55.8941C55.5464 14.9943 54.3824 15.9293 53 15.9293H52.4003C51.4899 17.1255 49.6373 17.9444 47.5 17.9444Z" fill="#FFFDFC"/>
<defs>
<filter id="filter0_d_250_18" x="27" y="6" width="48" height="26" filterUnits="userSpaceOnUse" color-interpolation-filters="sRGB">
<feFlood flood-opacity="0" result="BackgroundImageFix"/>
<feColorMatrix in="SourceAlpha" type="matrix" values="0 0 0 0 0 0 0 0 0 0 0 0 0 0 0 0 0 0 127 0" result="hardAlpha"/>
<feOffset dy="4"/>
<feGaussianBlur stdDeviation="2"/>
<feComposite in2="hardAlpha" operator="out"/>
<feColorMatrix type="matrix" values="0 0 0 0 0 0 0 0 0 0 0 0 0 0 0 0 0 0 0.25 0"/>
<feBlend mode="normal" in2="BackgroundImageFix" result="effect1_dropShadow_250_18"/>
<feBlend mode="normal" in="SourceGraphic" in2="effect1_dropShadow_250_18" result="shape"/>
</filter>
<filter id="filter1_d_250_18" x="0" y="2" width="48" height="26" filterUnits="userSpaceOnUse" color-interpolation-filters="sRGB">
<feFlood flood-opacity="0" result="BackgroundImageFix"/>
<feColorMatrix in="SourceAlpha" type="matrix" values="0 0 0 0 0 0 0 0 0 0 0 0 0 0 0 0 0 0 127 0" result="hardAlpha"/>
<feOffset dy="4"/>
<feGaussianBlur stdDeviation="2"/>
<feComposite in2="hardAlpha" operator="out"/>
<feColorMatrix type="matrix" values="0 0 0 0 0 0 0 0 0 0 0 0 0 0 0 0 0 0 0.25 0"/>
<feBlend mode="normal" in2="BackgroundImageFix" result="effect1_dropShadow_250_18"/>
<feBlend mode="normal" in="SourceGraphic" in2="effect1_dropShadow_250_18" result="shape"/>
</filter>
</defs>
</svg>
