<svg width="47" height="24" viewBox="0 0 47 24" fill="none" xmlns="http://www.w3.org/2000/svg">
<g clip-path="url(#clip0_103_187)">
<g filter="url(#filter0_d_103_187)">
<path fill-rule="evenodd" clip-rule="evenodd" d="M18.3024 3.52614C17.3147 2.58077 15.9752 2 14.5 2C12.3627 2 10.5101 3.21916 9.59971 5H9C7.34315 5 6 6.34315 6 8V9H4.68421C3.75405 9 3 9.75405 3 10.6842C3 11.9632 4.03681 13 5.31579 13H7.13791C7.32183 13.3256 7.67113 13.5455 8.07177 13.5455H10.0342C10.2533 14.9866 11.4977 16.0909 13 16.0909H13.5997C14.5101 17.2242 16.3627 18 18.5 18C21.0743 18 23.2355 16.8746 23.8348 15.3547C24.807 16.3428 26.5329 17 28.5 17C30.6373 17 32.4899 16.2242 33.4003 15.0909H34C35.3399 15.0909 36.4747 14.2124 36.8598 13H40.6842C41.9632 13 43 11.9632 43 10.6842C43 9.75405 42.246 9 41.3158 9H40.793C40.9278 8.52317 41 8.02001 41 7.5C41 4.46243 38.5376 2 35.5 2C33.5793 2 31.8886 2.98451 30.9049 4.47642C30.4253 1.92798 28.1878 0 25.5 0C23.3627 0 21.5101 1.21916 20.5997 3H20C19.3699 3 18.7852 3.19425 18.3024 3.52614Z" fill="white"/>
</g>
</g>
<defs>
<filter id="filter0_d_103_187" x="-1" y="0" width="48" height="26" filterUnits="userSpaceOnUse" color-interpolation-filters="sRGB">
<feFlood flood-opacity="0" result="BackgroundImageFix"/>
<feColorMatrix in="SourceAlpha" type="matrix" values="0 0 0 0 0 0 0 0 0 0 0 0 0 0 0 0 0 0 127 0" result="hardAlpha"/>
<feOffset dy="4"/>
<feGaussianBlur stdDeviation="2"/>
<feComposite in2="hardAlpha" operator="out"/>
<feColorMatrix type="matrix" values="0 0 0 0 0 0 0 0 0 0 0 0 0 0 0 0 0 0 0.25 0"/>
<feBlend mode="normal" in2="BackgroundImageFix" result="effect1_dropShadow_103_187"/>
<feBlend mode="normal" in="SourceGraphic" in2="effect1_dropShadow_103_187" result="shape"/>
</filter>
<clipPath id="clip0_103_187">
<rect width="47" height="24" fill="white"/>
</clipPath>
</defs>
</svg>
