<svg width="24" height="24" viewBox="0 0 24 24" fill="none" xmlns="http://www.w3.org/2000/svg">
<path fill-rule="evenodd" clip-rule="evenodd" d="M23 1H1V23H23V1ZM14.5523 11.645C14.5623 11.525 14.5773 11.405 14.5973 11.285C14.5873 11.265 14.5723 11.24 14.5523 11.21L14.4923 11.12L14.2823 11.15C14.2223 11.16 14.1623 11.175 14.1023 11.195C14.0623 11.175 14.0223 11.16 13.9823 11.15C13.9423 11.13 13.9023 11.115 13.8623 11.105C13.7623 11.105 13.6773 11.115 13.6073 11.135C13.5473 11.145 13.4823 11.155 13.4123 11.165C13.3523 11.175 13.2873 11.17 13.2173 11.15C13.1473 11.12 13.0823 11.105 13.0223 11.105C12.9723 11.135 12.9273 11.165 12.8873 11.195C12.8573 11.225 12.8173 11.255 12.7673 11.285C12.6973 11.295 12.6273 11.28 12.5573 11.24C12.4973 11.19 12.4373 11.16 12.3773 11.15C12.2273 11.12 12.1123 11.115 12.0323 11.135C11.9523 11.145 11.8923 11.175 11.8523 11.225C11.8123 11.265 11.7573 11.285 11.6873 11.285C11.6473 11.265 11.5973 11.245 11.5373 11.225C11.4873 11.195 11.4273 11.175 11.3573 11.165C11.2173 11.215 11.0673 11.235 10.9073 11.225C10.7573 11.215 10.6023 11.22 10.4423 11.24C10.3523 11.32 10.2573 11.38 10.1573 11.42L9.88732 11.54H9.73732C9.69732 11.53 9.66732 11.525 9.64732 11.525C9.53732 11.575 9.43232 11.6 9.33232 11.6C9.23232 11.59 9.13732 11.605 9.04732 11.645L8.94232 11.615C8.74232 11.535 8.52732 11.535 8.29732 11.615C8.24732 11.625 8.20232 11.645 8.16232 11.675C8.12232 11.695 8.07732 11.715 8.02732 11.735L7.87732 11.765C7.82732 11.765 7.77732 11.79 7.72732 11.84C7.70732 11.89 7.69732 11.945 7.69732 12.005V12.185C7.71732 12.365 7.72732 12.575 7.72732 12.815C7.72732 13.055 7.70732 13.265 7.66732 13.445C7.66732 13.455 7.66232 13.475 7.65232 13.505C7.65232 13.525 7.65732 13.54 7.66732 13.55C7.68732 13.62 7.68732 13.69 7.66732 13.76C7.65732 13.82 7.64232 13.88 7.62232 13.94V14.045C7.62232 14.075 7.63732 14.105 7.66732 14.135C7.69732 14.165 7.72232 14.18 7.74232 14.18L8.11732 14.24H8.50732C8.56732 14.23 8.62232 14.24 8.67232 14.27C8.73232 14.29 8.79232 14.285 8.85232 14.255C8.92232 14.235 8.98732 14.235 9.04732 14.255C9.11732 14.275 9.18732 14.285 9.25732 14.285C9.32732 14.285 9.39732 14.29 9.46732 14.3C9.53732 14.31 9.60732 14.315 9.67732 14.315C9.71732 14.335 9.74232 14.36 9.75232 14.39C9.78232 14.46 9.78732 14.525 9.76732 14.585C9.75732 14.645 9.75732 14.715 9.76732 14.795C9.75732 14.835 9.73732 14.88 9.70732 14.93L9.64732 15.08C9.69732 15.18 9.73232 15.285 9.75232 15.395C9.77232 15.495 9.78732 15.6 9.79732 15.71C9.76732 15.85 9.74732 16 9.73732 16.16C9.72732 16.31 9.72732 16.455 9.73732 16.595V16.745L9.72232 16.865C9.68232 16.905 9.64732 16.945 9.61732 16.985C9.59732 17.025 9.57232 17.065 9.54232 17.105C9.55232 17.235 9.55732 17.36 9.55732 17.48C9.56732 17.59 9.58232 17.705 9.60232 17.825C9.62232 17.975 9.63232 18.125 9.63232 18.275C9.64232 18.415 9.64232 18.565 9.63232 18.725V18.89C9.64232 18.94 9.64232 18.99 9.63232 19.04C9.63232 19.08 9.62732 19.125 9.61732 19.175C9.60732 19.215 9.59232 19.26 9.57232 19.31L9.63232 19.55C9.66232 19.63 9.68232 19.705 9.69232 19.775C9.68232 19.865 9.66232 19.945 9.63232 20.015C9.61232 20.085 9.60732 20.16 9.61732 20.24C9.69732 20.28 9.76232 20.275 9.81232 20.225C9.86232 20.175 9.92232 20.15 9.99232 20.15C10.0423 20.15 10.0973 20.155 10.1573 20.165C10.2173 20.175 10.2773 20.165 10.3373 20.135C10.4773 20.075 10.6223 20.09 10.7723 20.18L10.8023 20.21C10.9223 20.28 11.0373 20.295 11.1473 20.255C11.3573 20.195 11.5823 20.175 11.8223 20.195C11.8723 20.155 11.9073 20.12 11.9273 20.09C11.9573 20.06 11.9773 20.025 11.9873 19.985C12.0173 19.915 12.0423 19.845 12.0623 19.775C12.0823 19.695 12.0973 19.625 12.1073 19.565C12.0673 19.445 12.0423 19.33 12.0323 19.22V18.89C12.0423 18.73 12.0473 18.57 12.0473 18.41C12.0473 18.24 12.0273 18.075 11.9873 17.915V17.84C12.0173 17.71 12.0373 17.615 12.0473 17.555C12.0573 17.485 12.0623 17.41 12.0623 17.33C12.0723 17.24 12.0723 17.11 12.0623 16.94V16.925C12.0723 16.915 12.0773 16.905 12.0773 16.895V16.91C12.0773 16.94 12.0823 16.92 12.0923 16.85V16.685C12.0923 16.625 12.0873 16.565 12.0773 16.505C12.0473 16.415 12.0423 16.315 12.0623 16.205C12.0823 16.095 12.0923 15.995 12.0923 15.905C12.0923 15.805 12.0973 15.705 12.1073 15.605C12.1273 15.495 12.1373 15.39 12.1373 15.29C12.1373 15.19 12.1173 15.09 12.0773 14.99C12.0673 14.98 12.0623 14.955 12.0623 14.915C12.1023 14.815 12.1123 14.72 12.0923 14.63C12.0823 14.53 12.0673 14.44 12.0473 14.36C12.0373 14.3 12.0573 14.235 12.1073 14.165C12.1873 14.135 12.2623 14.12 12.3323 14.12C12.4123 14.11 12.4873 14.085 12.5573 14.045C12.6473 14.005 12.7323 13.975 12.8123 13.955C12.9023 13.925 12.9973 13.91 13.0973 13.91C13.1773 13.91 13.2723 13.92 13.3823 13.94C13.5023 13.95 13.5973 13.94 13.6673 13.91C13.6873 13.9 13.7123 13.9 13.7423 13.91H13.8173C13.8473 13.92 13.8723 13.935 13.8923 13.955C13.9223 13.975 13.9573 13.995 13.9973 14.015L14.0873 13.955C14.1273 13.925 14.1573 13.905 14.1773 13.895H14.3123L14.4623 13.865L14.5223 13.745C14.5423 13.695 14.5473 13.645 14.5373 13.595C14.5273 13.545 14.5323 13.495 14.5523 13.445C14.5723 13.365 14.5673 13.28 14.5373 13.19C14.5173 13.09 14.5023 12.99 14.4923 12.89C14.4923 12.85 14.4973 12.82 14.5073 12.8C14.5273 12.66 14.5373 12.525 14.5373 12.395C14.5473 12.265 14.5523 12.13 14.5523 11.99V11.645ZM21.1954 12.785C21.2955 12.695 21.3755 12.585 21.4354 12.455C21.3654 12.315 21.2904 12.175 21.2104 12.035C21.1404 11.885 21.0654 11.735 20.9854 11.585C20.9555 11.545 20.9205 11.51 20.8804 11.48C20.8405 11.45 20.8004 11.415 20.7604 11.375C20.7204 11.325 20.6805 11.28 20.6404 11.24C20.6104 11.19 20.5754 11.145 20.5354 11.105C20.4054 11.065 20.2854 11.015 20.1754 10.955C20.0654 10.885 19.9555 10.81 19.8454 10.73C19.7454 10.71 19.6404 10.685 19.5304 10.655C19.4305 10.625 19.3254 10.61 19.2155 10.61C19.0954 10.6 18.9754 10.615 18.8554 10.655C18.7454 10.695 18.6354 10.695 18.5254 10.655C18.5054 10.645 18.4854 10.645 18.4655 10.655H18.4354C18.3354 10.665 18.2304 10.675 18.1204 10.685C18.0204 10.695 17.9205 10.71 17.8204 10.73C17.7604 10.76 17.7004 10.785 17.6404 10.805C17.5805 10.825 17.5254 10.85 17.4754 10.88C17.4354 10.89 17.4004 10.905 17.3704 10.925C17.3404 10.935 17.3154 10.955 17.2955 10.985C17.2254 11.055 17.1504 11.11 17.0704 11.15C16.9904 11.18 16.9154 11.22 16.8454 11.27C16.7854 11.34 16.7304 11.405 16.6804 11.465C16.6304 11.525 16.5854 11.585 16.5454 11.645C16.5354 11.685 16.5354 11.73 16.5454 11.78C16.5554 11.82 16.5354 11.865 16.4854 11.915L16.4104 11.99C16.3804 12.02 16.3404 12.05 16.2904 12.08C16.2804 12.11 16.2654 12.14 16.2454 12.17C16.2354 12.2 16.2204 12.235 16.2004 12.275C16.1004 12.435 16.0504 12.61 16.0504 12.8C16.0604 12.87 16.0504 12.925 16.0204 12.965C15.9904 13.005 15.9654 13.055 15.9454 13.115L15.8854 13.235C15.8654 13.275 15.8354 13.305 15.7954 13.325L15.8554 13.475C15.8454 13.595 15.8304 13.715 15.8104 13.835C15.8004 13.945 15.7854 14.055 15.7654 14.165C15.7954 14.325 15.8254 14.475 15.8554 14.615L15.9454 14.825C15.9754 14.885 16.0104 14.94 16.0504 14.99C16.1004 15.06 16.1404 15.135 16.1704 15.215C16.2104 15.285 16.2504 15.345 16.2904 15.395C16.3404 15.445 16.3854 15.5 16.4254 15.56L16.5754 15.74C16.6854 15.78 16.8204 15.845 16.9804 15.935C17.0304 16.005 17.0954 16.045 17.1754 16.055C17.2554 16.065 17.3305 16.08 17.4004 16.1C17.4504 16.14 17.4954 16.185 17.5354 16.235C17.5754 16.275 17.6304 16.305 17.7004 16.325C17.8704 16.325 18.0404 16.36 18.2104 16.43C18.3904 16.5 18.5654 16.545 18.7354 16.565L18.8854 16.685C18.9354 16.725 18.9804 16.76 19.0204 16.79C19.0905 16.88 19.1354 16.97 19.1554 17.06C19.1854 17.15 19.2104 17.235 19.2304 17.315C19.2204 17.425 19.1954 17.525 19.1554 17.615C19.1154 17.705 19.0754 17.8 19.0354 17.9C19.0254 17.92 19.0104 17.94 18.9904 17.96C18.9804 17.97 18.9704 17.985 18.9604 18.005H18.6904C18.6804 18.015 18.6654 18.025 18.6454 18.035C18.6255 18.045 18.6004 18.055 18.5704 18.065L18.5254 18.11C18.5054 18.12 18.4754 18.13 18.4354 18.14C18.2454 18.09 18.0604 18.035 17.8804 17.975C17.7004 17.915 17.5104 17.86 17.3104 17.81C17.2505 17.85 17.1954 17.89 17.1454 17.93C17.0954 17.96 17.0504 17.99 17.0104 18.02L16.7104 18.41C16.6104 18.53 16.5154 18.65 16.4254 18.77C16.3954 18.86 16.3804 18.935 16.3804 18.995C16.3404 19.075 16.2904 19.15 16.2304 19.22C16.1804 19.29 16.1504 19.365 16.1404 19.445C16.1504 19.505 16.1904 19.56 16.2604 19.61L16.4104 19.67C16.4704 19.68 16.5204 19.705 16.5604 19.745C16.6104 19.785 16.6654 19.825 16.7254 19.865C16.7854 19.905 16.8454 19.95 16.9054 20C16.9954 20.09 17.0954 20.16 17.2055 20.21C17.3154 20.27 17.4304 20.325 17.5504 20.375C17.6304 20.415 17.7254 20.435 17.8354 20.435C17.9954 20.435 18.1404 20.485 18.2704 20.585L18.7505 20.465C18.8405 20.445 18.9205 20.415 18.9904 20.375C19.1004 20.325 19.2055 20.29 19.3054 20.27C19.4154 20.25 19.5204 20.235 19.6204 20.225L19.9354 20.075C19.9854 20.035 20.0404 20 20.1004 19.97C20.1604 19.94 20.2104 19.905 20.2505 19.865C20.3305 19.785 20.4004 19.705 20.4604 19.625C20.5304 19.545 20.6154 19.47 20.7155 19.4C20.7354 19.39 20.7454 19.38 20.7454 19.37C20.7454 19.35 20.7505 19.335 20.7604 19.325C20.8305 19.215 20.8904 19.105 20.9404 18.995C21.0005 18.885 21.0754 18.785 21.1654 18.695C21.1854 18.675 21.1954 18.66 21.1954 18.65C21.1954 18.64 21.2004 18.63 21.2104 18.62C21.2505 18.54 21.2804 18.455 21.3004 18.365C21.3305 18.265 21.3454 18.165 21.3454 18.065C21.3654 17.945 21.3704 17.825 21.3604 17.705C21.3604 17.575 21.3454 17.445 21.3154 17.315L21.1654 16.985C21.1255 16.875 21.0954 16.76 21.0754 16.64C21.0754 16.61 21.0704 16.59 21.0604 16.58L20.9704 16.34C20.9504 16.26 20.9054 16.19 20.8354 16.13C20.7854 16.05 20.7304 15.965 20.6705 15.875C20.6204 15.785 20.5704 15.7 20.5204 15.62C20.4305 15.43 20.3004 15.28 20.1304 15.17L20.0404 15.11C20.0104 15.09 19.9804 15.075 19.9504 15.065C19.9104 15.015 19.8654 14.975 19.8154 14.945L19.6804 14.81C19.6304 14.76 19.5704 14.725 19.5005 14.705C19.4404 14.675 19.3804 14.64 19.3204 14.6C19.2304 14.52 19.1355 14.45 19.0354 14.39C18.9354 14.32 18.8405 14.25 18.7505 14.18C18.7104 14.11 18.6654 14.045 18.6154 13.985C18.5754 13.915 18.5304 13.85 18.4804 13.79L18.4504 13.55C18.4504 13.47 18.4454 13.39 18.4354 13.31C18.4754 13.26 18.5105 13.205 18.5404 13.145L18.6604 12.965L18.8405 12.905C18.9004 12.885 18.9604 12.87 19.0204 12.86C19.2004 12.79 19.3904 12.795 19.5905 12.875C19.6104 12.875 19.6255 12.885 19.6355 12.905L19.6804 12.95V13.1C19.7004 13.12 19.7155 13.125 19.7255 13.115C19.8554 13.095 19.9604 13.12 20.0404 13.19C20.0805 13.21 20.1104 13.235 20.1304 13.265C20.1604 13.285 20.1954 13.305 20.2354 13.325C20.3154 13.385 20.4054 13.385 20.5054 13.325C20.5654 13.275 20.6304 13.225 20.7004 13.175C20.7804 13.125 20.8604 13.09 20.9404 13.07C21.0105 12.96 21.0954 12.865 21.1954 12.785Z" fill="#2D0D06"/>
</svg>
