<svg width="34" height="51" viewBox="0 0 34 51" fill="none" xmlns="http://www.w3.org/2000/svg">
<path fill-rule="evenodd" clip-rule="evenodd" d="M17 0C13.9694 0 11.5646 2.2905 11.5646 5.05712C11.5646 7.5543 13.5238 9.66358 16.134 10.0507L16.1097 10.0619L9.56602 13.1231C9.35062 13.2238 9.18124 13.3633 9.0579 13.5249H4.5102C3.90667 13.5249 3.46939 13.9746 3.46939 14.4704L3.46939 19.4758H1.96599C0.8515 19.4758 0 20.313 0 21.287V22.369C0 23.3429 0.851499 24.1801 1.96599 24.1801H3.46939V29.7265C3.46939 30.2223 3.90667 30.672 4.5102 30.672H9.31462L8.32158 31.6011L9.48794 32.6126L11.6137 30.6237C11.9699 33.0754 14.222 35 17 35C19.778 35 22.0301 33.0754 22.3863 30.6237L24.5121 32.6126L25.6784 31.6011L24.6854 30.672H29.4898C30.0933 30.672 30.5306 30.2224 30.5306 29.7265V24.1801H32.034C33.1485 24.1801 34 23.3429 34 22.369V21.287C34 20.313 33.1485 19.4758 32.034 19.4758H30.5306V14.4704C30.5306 13.9745 30.0933 13.5249 29.4898 13.5249H24.9421C24.8188 13.3633 24.6494 13.2238 24.434 13.1231L17.8903 10.0619L17.866 10.0507C20.4762 9.66358 22.4354 7.5543 22.4354 5.05712C22.4354 2.2905 20.0306 0 17 0ZM13.1837 5.05712C13.1837 3.04322 14.921 1.45833 17 1.45833C19.079 1.45833 20.8163 3.04322 20.8163 5.05712C20.8163 7.07103 19.079 8.65591 17 8.65591C14.921 8.65591 13.1837 7.07103 13.1837 5.05712ZM5.08844 14.9832H9.0579C9.18124 15.1448 9.35062 15.2842 9.56602 15.385L14.8414 17.8528H13.5306C12.4161 17.8528 11.5646 18.6901 11.5646 19.664V20.746C11.5646 21.7199 12.4161 22.5571 13.5306 22.5571H16.1905V24.9412C13.794 25.2726 11.9345 27.0534 11.6137 29.2621L9.48795 27.2732L8.32158 28.2846L9.31462 29.2137H5.08844V24.1801H6.59184C7.70632 24.1801 8.55782 23.3429 8.55782 22.369V21.287C8.55782 20.313 7.70632 19.4758 6.59184 19.4758H5.08844L5.08844 14.9832ZM24.434 15.385L19.1586 17.8528H20.4694C21.5839 17.8528 22.4354 18.6901 22.4354 19.664V20.746C22.4354 21.7199 21.5839 22.5571 20.4694 22.5571H17.8095V24.9412C20.206 25.2726 22.0655 27.0534 22.3863 29.2621L24.5121 27.2732L25.6784 28.2846L24.6854 29.2137H28.9116V24.1801H27.4082C26.2937 24.1801 25.4422 23.3429 25.4422 22.369V21.287C25.4422 20.313 26.2937 19.4758 27.4082 19.4758H28.9116V14.9832H24.9421C24.8188 15.1448 24.6494 15.2842 24.434 15.385ZM17.1441 11.3561L23.3388 14.254L17.1441 17.152C17.0524 17.1948 16.9476 17.1948 16.8559 17.152L10.6612 14.254L16.8559 11.3561C16.9476 11.3132 17.0524 11.3132 17.1441 11.3561ZM13.1837 19.664C13.1837 19.4428 13.3677 19.3112 13.5306 19.3112H20.4694C20.6323 19.3112 20.8163 19.4428 20.8163 19.664V20.746C20.8163 20.9672 20.6323 21.0988 20.4694 21.0988H13.5306C13.3677 21.0988 13.1837 20.9672 13.1837 20.746V19.664ZM1.61905 21.287C1.61905 21.0658 1.80308 20.9341 1.96599 20.9341H6.59184C6.75474 20.9341 6.93877 21.0658 6.93877 21.287V22.369C6.93877 22.5902 6.75474 22.7218 6.59184 22.7218H1.96599C1.80308 22.7218 1.61905 22.5902 1.61905 22.369V21.287ZM27.0612 21.287C27.0612 21.0658 27.2453 20.9341 27.4082 20.9341H32.034C32.1969 20.9341 32.381 21.0658 32.381 21.287V22.369C32.381 22.5902 32.1969 22.7218 32.034 22.7218H27.4082C27.2453 22.7218 27.0612 22.5902 27.0612 22.369V21.287ZM13.1837 29.9429C13.1837 27.929 14.921 26.3441 17 26.3441C19.079 26.3441 20.8163 27.929 20.8163 29.9429C20.8163 31.9568 19.079 33.5417 17 33.5417C14.921 33.5417 13.1837 31.9568 13.1837 29.9429Z" fill="#2D0D06" fill-opacity="0.5"/>
<path d="M11.1413 48.4H9.68527L8.38327 44.844H3.73527L2.41927 48.4H0.977273L5.19127 37.06H6.92727L11.1413 48.4ZM6.05927 38.544L4.19727 43.57H7.90727L6.05927 38.544Z" fill="#95807C"/>
<path d="M13.9481 48.4H12.5481V37.06H13.9481V48.4Z" fill="#95807C"/>
<path d="M21.9821 40.168H23.2841V47.28C23.2841 48.0733 23.1161 48.75 22.7801 49.31C22.4534 49.87 22.0054 50.29 21.4361 50.57C20.8761 50.85 20.2414 50.99 19.5321 50.99C18.7201 50.99 18.0014 50.85 17.3761 50.57C16.7601 50.2993 16.3121 49.8887 16.0321 49.338L17.4461 48.778C17.6141 49.1047 17.8848 49.3567 18.2581 49.534C18.6314 49.7113 19.0561 49.8 19.5321 49.8C20.2788 49.8 20.8528 49.5713 21.2541 49.114C21.6648 48.666 21.8701 48.0267 21.8701 47.196V46.65C21.5528 47.0513 21.1561 47.364 20.6801 47.588C20.2041 47.812 19.6954 47.924 19.1541 47.924C18.5848 47.924 18.0388 47.7747 17.5161 47.476C17.0028 47.1867 16.5828 46.7713 16.2561 46.23C15.9388 45.6887 15.7801 45.0633 15.7801 44.354V43.528C15.7801 42.828 15.9388 42.2073 16.2561 41.666C16.5828 41.1153 17.0028 40.6953 17.5161 40.406C18.0388 40.1073 18.5848 39.958 19.1541 39.958C19.7141 39.958 20.2321 40.0747 20.7081 40.308C21.1841 40.5413 21.5808 40.868 21.8981 41.288L21.9821 40.168ZM19.5461 46.678C19.9754 46.678 20.3674 46.5847 20.7221 46.398C21.0768 46.202 21.3568 45.9267 21.5621 45.572C21.7674 45.2173 21.8701 44.7973 21.8701 44.312V43.57C21.8701 43.094 21.7674 42.6787 21.5621 42.324C21.3568 41.96 21.0768 41.6847 20.7221 41.498C20.3674 41.302 19.9754 41.204 19.5461 41.204C19.1074 41.204 18.7061 41.302 18.3421 41.498C17.9874 41.6847 17.7028 41.9553 17.4881 42.31C17.2828 42.6647 17.1801 43.0847 17.1801 43.57V44.312C17.1801 44.7973 17.2828 45.2173 17.4881 45.572C17.7028 45.9267 17.9874 46.202 18.3421 46.398C18.7061 46.5847 19.1074 46.678 19.5461 46.678Z" fill="#95807C"/>
<path d="M28.8159 48.61C28.1346 48.61 27.5046 48.4653 26.9259 48.176C26.3566 47.8867 25.8993 47.4573 25.5539 46.888C25.2086 46.3187 25.0359 45.6373 25.0359 44.844V43.724C25.0359 42.9307 25.2086 42.2493 25.5539 41.68C25.8993 41.1107 26.3566 40.6813 26.9259 40.392C27.5046 40.1027 28.1346 39.958 28.8159 39.958C29.5066 39.958 30.1366 40.1027 30.7059 40.392C31.2846 40.6813 31.7466 41.1107 32.0919 41.68C32.4373 42.2493 32.6099 42.9307 32.6099 43.724V44.844C32.6099 45.6373 32.4373 46.3187 32.0919 46.888C31.7466 47.4573 31.2846 47.8867 30.7059 48.176C30.1366 48.4653 29.5066 48.61 28.8159 48.61ZM28.8159 47.322C29.2546 47.322 29.6513 47.224 30.0059 47.028C30.3699 46.832 30.6593 46.5473 30.8739 46.174C31.0886 45.7913 31.1959 45.334 31.1959 44.802V43.766C31.1959 43.234 31.0886 42.7813 30.8739 42.408C30.6593 42.0253 30.3699 41.736 30.0059 41.54C29.6513 41.344 29.2546 41.246 28.8159 41.246C28.3773 41.246 27.9759 41.344 27.6119 41.54C27.2573 41.736 26.9726 42.0253 26.7579 42.408C26.5433 42.7813 26.4359 43.234 26.4359 43.766V44.802C26.4359 45.334 26.5433 45.7913 26.7579 46.174C26.9726 46.5473 27.2573 46.832 27.6119 47.028C27.9759 47.224 28.3773 47.322 28.8159 47.322Z" fill="#95807C"/>
</svg>
